<svg viewBox="0 0 1496 400" xmlns="http://www.w3.org/2000/svg"><g><g><g><g><g><line x1="74.78125" y1="377" x2="69.78125" y2="377" style="visibility: inherit;" fill="rgb(0, 0, 0)" stroke="rgb(204, 204, 204)" stroke-width="1px"></line><line x1="74.78125" y1="339.3" x2="69.78125" y2="339.3" style="visibility: inherit;" fill="rgb(0, 0, 0)" stroke="rgb(204, 204, 204)" stroke-width="1px"></line><line x1="74.78125" y1="301.6" x2="69.78125" y2="301.6" style="visibility: inherit;" fill="rgb(0, 0, 0)" stroke="rgb(204, 204, 204)" stroke-width="1px"></line><line x1="74.78125" y1="263.9" x2="69.78125" y2="263.9" style="visibility: inherit;" fill="rgb(0, 0, 0)" stroke="rgb(204, 204, 204)" stroke-width="1px"></line><line x1="74.78125" y1="226.2" x2="69.78125" y2="226.2" style="visibility: inherit;" fill="rgb(0, 0, 0)" stroke="rgb(204, 204, 204)" stroke-width="1px"></line><line x1="74.78125" y1="188.5" x2="69.78125" y2="188.5" style="visibility: inherit;" fill="rgb(0, 0, 0)" stroke="rgb(204, 204, 204)" stroke-width="1px"></line><line x1="74.78125" y1="150.8" x2="69.78125" y2="150.8" style="visibility: inherit;" fill="rgb(0, 0, 0)" stroke="rgb(204, 204, 204)" stroke-width="1px"></line><line x1="74.78125" y1="113.10000000000002" x2="69.78125" y2="113.10000000000002" style="visibility: inherit;" fill="rgb(0, 0, 0)" stroke="rgb(204, 204, 204)" stroke-width="1px"></line><line x1="74.78125" y1="75.39999999999998" x2="69.78125" y2="75.39999999999998" style="visibility: inherit;" fill="rgb(0, 0, 0)" stroke="rgb(204, 204, 204)" stroke-width="1px"></line><line x1="74.78125" y1="37.69999999999999" x2="69.78125" y2="37.69999999999999" style="visibility: inherit;" fill="rgb(0, 0, 0)" stroke="rgb(204, 204, 204)" stroke-width="1px"></line><line x1="74.78125" y1="0" x2="69.78125" y2="0" style="visibility: inherit;" fill="rgb(0, 0, 0)" stroke="rgb(204, 204, 204)" stroke-width="1px"></line></g><g transform="translate(64.78125, 0)"><text x="0" y="377" dx="0em" dy="0.3em" style="text-anchor: end; visibility: hidden; font-family: &quot;Helvetica Neue&quot;, sans-serif; font-size: 12px; font-weight: 200;" fill="rgb(50, 49, 63)" stroke="none" stroke-width="1px">-2e+3</text><text x="0" y="339.3" dx="0em" dy="0.3em" style="text-anchor: end; visibility: inherit; font-family: &quot;Helvetica Neue&quot;, sans-serif; font-size: 12px; font-weight: 200;" fill="rgb(50, 49, 63)" stroke="none" stroke-width="1px">0</text><text x="0" y="301.6" dx="0em" dy="0.3em" style="text-anchor: end; visibility: inherit; font-family: &quot;Helvetica Neue&quot;, sans-serif; font-size: 12px; font-weight: 200;" fill="rgb(50, 49, 63)" stroke="none" stroke-width="1px">2e+3</text><text x="0" y="263.9" dx="0em" dy="0.3em" style="text-anchor: end; visibility: inherit; font-family: &quot;Helvetica Neue&quot;, sans-serif; font-size: 12px; font-weight: 200;" fill="rgb(50, 49, 63)" stroke="none" stroke-width="1px">4e+3</text><text x="0" y="226.2" dx="0em" dy="0.3em" style="text-anchor: end; visibility: inherit; font-family: &quot;Helvetica Neue&quot;, sans-serif; font-size: 12px; font-weight: 200;" fill="rgb(50, 49, 63)" stroke="none" stroke-width="1px">6e+3</text><text x="0" y="188.5" dx="0em" dy="0.3em" style="text-anchor: end; visibility: inherit; font-family: &quot;Helvetica Neue&quot;, sans-serif; font-size: 12px; font-weight: 200;" fill="rgb(50, 49, 63)" stroke="none" stroke-width="1px">8e+3</text><text x="0" y="150.8" dx="0em" dy="0.3em" style="text-anchor: end; visibility: inherit; font-family: &quot;Helvetica Neue&quot;, sans-serif; font-size: 12px; font-weight: 200;" fill="rgb(50, 49, 63)" stroke="none" stroke-width="1px">1e+4</text><text x="0" y="113.10000000000002" dx="0em" dy="0.3em" style="text-anchor: end; visibility: inherit; font-family: &quot;Helvetica Neue&quot;, sans-serif; font-size: 12px; font-weight: 200;" fill="rgb(50, 49, 63)" stroke="none" stroke-width="1px">1.2e+4</text><text x="0" y="75.39999999999998" dx="0em" dy="0.3em" style="text-anchor: end; visibility: inherit; font-family: &quot;Helvetica Neue&quot;, sans-serif; font-size: 12px; font-weight: 200;" fill="rgb(50, 49, 63)" stroke="none" stroke-width="1px">1.4e+4</text><text x="0" y="37.69999999999999" dx="0em" dy="0.3em" style="text-anchor: end; visibility: inherit; font-family: &quot;Helvetica Neue&quot;, sans-serif; font-size: 12px; font-weight: 200;" fill="rgb(50, 49, 63)" stroke="none" stroke-width="1px">1.6e+4</text><text x="0" y="0" dx="0em" dy="0.3em" style="text-anchor: end; visibility: hidden; font-family: &quot;Helvetica Neue&quot;, sans-serif; font-size: 12px; font-weight: 200;" fill="rgb(50, 49, 63)" stroke="none" stroke-width="1px">1.8e+4</text></g><line x1="74.78125" y1="0" x2="74.78125" y2="377" fill="rgb(0, 0, 0)" stroke="rgb(204, 204, 204)" stroke-width="1px"></line></g></g><g transform="translate(74, 0)" clip-path="url(#clip_0)"><clipPath id="clip_0"><rect width="1421" height="377"></rect></clipPath><g><g><g><line x1="0" y1="0" x2="0" y2="377" fill="rgb(0, 0, 0)" stroke="rgb(60, 60, 60)" stroke-width="1px" opacity="0.25"></line><line x1="157.91319444444443" y1="0" x2="157.91319444444443" y2="377" fill="rgb(0, 0, 0)" stroke="rgb(60, 60, 60)" stroke-width="1px" opacity="0.25"></line><line x1="315.82638888888886" y1="0" x2="315.82638888888886" y2="377" fill="rgb(0, 0, 0)" stroke="rgb(60, 60, 60)" stroke-width="1px" opacity="0.25"></line><line x1="473.7395833333333" y1="0" x2="473.7395833333333" y2="377" fill="rgb(0, 0, 0)" stroke="rgb(60, 60, 60)" stroke-width="1px" opacity="0.25"></line><line x1="631.6527777777777" y1="0" x2="631.6527777777777" y2="377" fill="rgb(0, 0, 0)" stroke="rgb(60, 60, 60)" stroke-width="1px" opacity="0.25"></line><line x1="789.5659722222223" y1="0" x2="789.5659722222223" y2="377" fill="rgb(0, 0, 0)" stroke="rgb(60, 60, 60)" stroke-width="1px" opacity="0.25"></line><line x1="947.4791666666666" y1="0" x2="947.4791666666666" y2="377" fill="rgb(0, 0, 0)" stroke="rgb(60, 60, 60)" stroke-width="1px" opacity="0.25"></line><line x1="1105.392361111111" y1="0" x2="1105.392361111111" y2="377" fill="rgb(0, 0, 0)" stroke="rgb(60, 60, 60)" stroke-width="1px" opacity="0.25"></line><line x1="1263.3055555555554" y1="0" x2="1263.3055555555554" y2="377" fill="rgb(0, 0, 0)" stroke="rgb(60, 60, 60)" stroke-width="1px" opacity="0.25"></line><line x1="1421.21875" y1="0" x2="1421.21875" y2="377" fill="rgb(0, 0, 0)" stroke="rgb(60, 60, 60)" stroke-width="1px" opacity="0.25"></line></g><g><line x1="0" y1="377" x2="1421.21875" y2="377" fill="rgb(0, 0, 0)" stroke="rgb(60, 60, 60)" stroke-width="1px" opacity="0.25"></line><line x1="0" y1="339.3" x2="1421.21875" y2="339.3" fill="rgb(0, 0, 0)" stroke="rgb(60, 60, 60)" stroke-width="1px" opacity="0.25"></line><line x1="0" y1="301.6" x2="1421.21875" y2="301.6" fill="rgb(0, 0, 0)" stroke="rgb(60, 60, 60)" stroke-width="1px" opacity="0.25"></line><line x1="0" y1="263.9" x2="1421.21875" y2="263.9" fill="rgb(0, 0, 0)" stroke="rgb(60, 60, 60)" stroke-width="1px" opacity="0.25"></line><line x1="0" y1="226.2" x2="1421.21875" y2="226.2" fill="rgb(0, 0, 0)" stroke="rgb(60, 60, 60)" stroke-width="1px" opacity="0.25"></line><line x1="0" y1="188.5" x2="1421.21875" y2="188.5" fill="rgb(0, 0, 0)" stroke="rgb(60, 60, 60)" stroke-width="1px" opacity="0.25"></line><line x1="0" y1="150.8" x2="1421.21875" y2="150.8" fill="rgb(0, 0, 0)" stroke="rgb(60, 60, 60)" stroke-width="1px" opacity="0.25"></line><line x1="0" y1="113.10000000000002" x2="1421.21875" y2="113.10000000000002" fill="rgb(0, 0, 0)" stroke="rgb(60, 60, 60)" stroke-width="1px" opacity="0.25"></line><line x1="0" y1="75.39999999999998" x2="1421.21875" y2="75.39999999999998" fill="rgb(0, 0, 0)" stroke="rgb(60, 60, 60)" stroke-width="1px" opacity="0.25"></line><line x1="0" y1="37.69999999999999" x2="1421.21875" y2="37.69999999999999" fill="rgb(0, 0, 0)" stroke="rgb(60, 60, 60)" stroke-width="1px" opacity="0.25"></line><line x1="0" y1="0" x2="1421.21875" y2="0" fill="rgb(0, 0, 0)" stroke="rgb(60, 60, 60)" stroke-width="1px" opacity="0.25"></line></g></g></g><g><g><line x1="0" y1="339.3" x2="1421.21875" y2="339.3" fill="rgb(0, 0, 0)" stroke="rgb(153, 153, 153)" stroke-width="1.5px"></line></g></g><g><g><line x1="157.91319444444443" y1="0" x2="157.91319444444443" y2="377" fill="rgb(0, 0, 0)" stroke="rgb(153, 153, 153)" stroke-width="1.5px"></line></g></g><g><g><g><g><g><path stroke="rgb(238, 51, 119)" stroke-width="2px" d="M157.91319444444443,73.33971708984376L173.7045138888889,101.23327877031653L189.49583333333334,105.71888519691862L205.28715277777775,106.17317505663647L221.07847222222222,114.41560802409111L236.86979166666666,123.6249844883462L252.66111111111113,129.3271314131368L268.45243055555557,135.25016431349084L284.24375000000003,139.4148646608242L300.03506944444445,144.228507520264L315.82638888888886,147.97169352441333L331.6177083333333,150.47392765865564L347.4090277777778,153.92519311678967L363.2003472222222,156.82047510572087L378.9916666666667,159.64068162977813L394.78298611111114,161.86882372555277L410.5743055555555,164.48140014496278L426.36562499999997,166.75471750404506L442.15694444444443,168.489028231037L457.9482638888889,170.56567262528245L473.7395833333333,172.54623683154117L489.5309027777778,173.774616589228L505.32222222222225,174.9438716488923L521.1135416666666,176.27270511447705L536.9048611111111,177.6206678864503L552.6961805555555,178.800138698491L568.4875000000001,180.05866811703234L584.2788194444444,181.29745343177413L600.0701388888889,182.10008868927886L615.8614583333333,183.32807549364995L631.6527777777777,184.29628840448083L647.4440972222222,185.27951655248023L663.2354166666667,186.2548138965461L679.0267361111112,187.23203270302636L694.8180555555556,188.01121882517612L710.609375,188.95015194899733L726.4006944444444,189.7508783442231L742.1920138888889,190.53832231887682L757.9833333333333,191.22027875055667L773.7746527777778,191.89437865466397L789.5659722222223,192.60254338344717L805.3572916666667,193.18435309222232L821.148611111111,193.785516336614L836.9399305555556,194.33720459926897L852.7312499999999,194.8340789965591L868.5225694444446,195.45042989351208L884.3138888888889,196.03489728785655L900.1052083333333,196.43945159762686L915.8965277777778,196.91819395076809L931.6878472222222,197.42352685153085L947.4791666666666,197.8290290023316L963.2704861111112,198.36856830068814L979.0618055555556,198.75371236006208L994.853125,199.01796507934677L1010.6444444444445,199.42993703455835L1026.435763888889,199.7058659885645L1042.2270833333332,200.04889093225182L1058.0184027777777,200.3014471972103L1073.8097222222223,200.5946790064653L1089.6010416666668,200.85552156506307L1105.392361111111,201.1422227026247L1121.1836805555556,201.42657099473433L1136.9750000000001,201.65849493561052L1152.7663194444444,201.88930997092623L1168.5576388888887,202.1454544446906L1184.3489583333335,202.4557189379421L1200.1402777777778,202.57123325215002L1215.931597222222,202.76450768525706L1231.7229166666666,202.9400678445944L1247.5142361111111,203.07260135290952L1263.3055555555554,203.18616806599152L1279.096875,203.42573300788578L1294.8881944444445,203.66028558131234L1310.679513888889,203.8596619863765L1326.4708333333333,203.98246297056275" style="fill: none;" fill="none"></path></g><g><path stroke="rgb(51, 187, 238)" stroke-width="2px" d="M157.91319444444443,90.57693759765624L173.7045138888889,85.65973652883577L189.49583333333334,101.85232421345927L205.28715277777775,113.38707392185933L221.07847222222222,120.9039765157944L236.86979166666666,125.82276929443461L252.66111111111113,131.28347826629553L268.45243055555557,137.27344137369536L284.24375000000003,142.24630655399332L300.03506944444445,145.96307789473707L315.82638888888886,149.44688577343723L331.6177083333333,152.64132319470494L347.4090277777778,154.16939969925704L363.2003472222222,157.18447679382157L378.9916666666667,160.1514626306864L394.78298611111114,161.95394221573378L410.5743055555555,164.39086599202065L426.36562499999997,165.82995170052473L442.15694444444443,167.90094796227592L457.9482638888889,169.76714465361874L473.7395833333333,171.4869710727606L489.5309027777778,172.7468000608915L505.32222222222225,174.23482601084115L521.1135416666666,175.42254953846543L536.9048611111111,175.70606004189557L552.6961805555555,176.94471464892396L568.4875000000001,178.36970313114176L584.2788194444444,179.3203677854545L600.0701388888889,180.43868375227416L615.8614583333333,181.60202641984043L631.6527777777777,182.57560591017574L647.4440972222222,183.50712923349099L663.2354166666667,184.25929017897266L679.0267361111112,185.25778886834024L694.8180555555556,186.27977270715735L710.609375,186.87519653305827L726.4006944444444,187.7618562121933L742.1920138888889,188.63848883488242L757.9833333333333,189.23622192900322L773.7746527777778,189.85539840090863L789.5659722222223,190.5369041397303L805.3572916666667,190.96513099566866L821.148611111111,191.49710251123767L836.9399305555556,192.07924894040656L852.7312499999999,192.42814702044004L868.5225694444446,193.04247741312219L884.3138888888889,193.5637083229991L900.1052083333333,194.11741136408799L915.8965277777778,194.54420733818782L931.6878472222222,194.92366628261047L947.4791666666666,195.47290647396974L963.2704861111112,195.9010555094838L979.0618055555556,196.32153451882925L994.853125,196.59550314818995L1010.6444444444445,197.04623045978926L1026.435763888889,197.20973563546087L1042.2270833333332,197.43380899565545L1058.0184027777777,197.692468916393L1073.8097222222223,197.95702240205014L1089.6010416666668,198.2094918276792L1105.392361111111,198.4742526040768L1121.1836805555556,198.61498517287654L1136.9750000000001,198.94652452379134L1152.7663194444444,199.24668004463194L1168.5576388888887,199.48495941213122L1184.3489583333335,199.81478376262046L1200.1402777777778,200.04136135037248L1215.931597222222,200.28406817744803L1231.7229166666666,200.50291618321953L1247.5142361111111,200.69648650835308L1263.3055555555554,200.9026035173066L1279.096875,201.15064233301814L1294.8881944444445,201.39970704326836L1310.679513888889,201.57140633100346L1326.4708333333333,201.66415958589926" style="fill: none;" fill="none"></path></g><g><path stroke="rgb(204, 51, 17)" stroke-width="2px" d="M157.91319444444443,83.50925527343747L173.7045138888889,104.46673552135695L189.49583333333334,113.02489248844176L205.28715277777775,122.99470995644208L221.07847222222222,128.05976792568512L236.86979166666666,135.0529100238425L252.66111111111113,138.3666385777629L268.45243055555557,142.35535444100762L284.24375000000003,147.1315193942097L300.03506944444445,150.29544666087716L315.82638888888886,153.9153132688184L331.6177083333333,156.2623171375805L347.4090277777778,159.856315449466L363.2003472222222,162.45023010947975L378.9916666666667,164.95467191668882L394.78298611111114,167.25631978402114L410.5743055555555,169.29312449505062L426.36562499999997,171.1617316916331L442.15694444444443,172.76029222569025L457.9482638888889,174.25998177187435L473.7395833333333,176.04028879831029L489.5309027777778,177.44523266678087L505.32222222222225,178.84525765163633L521.1135416666666,180.15358832430059L536.9048611111111,181.33016056608872L552.6961805555555,182.51652332236168L568.4875000000001,183.93869256836078L584.2788194444444,184.94583079903987L600.0701388888889,185.4106767575335L615.8614583333333,186.43127460466172L631.6527777777777,187.3038602898239L647.4440972222222,188.17686220613712L663.2354166666667,189.08149501084725L679.0267361111112,189.62737067923806L694.8180555555556,190.29552035163354L710.609375,190.98080152531546L726.4006944444444,191.56547759644616L742.1920138888889,192.2046430288762L757.9833333333333,192.8596156286794L773.7746527777778,193.41919085860096L789.5659722222223,194.00139157824927L805.3572916666667,194.4920067504101L821.148611111111,195.0051478215813L836.9399305555556,195.4435048924059L852.7312499999999,195.95127009397277L868.5225694444446,196.43873279105713L884.3138888888889,196.8656834605203L900.1052083333333,197.14566246592497L915.8965277777778,197.4725673699644L931.6878472222222,197.84441005698673L947.4791666666666,198.12286965465907L963.2704861111112,198.53766884137397L979.0618055555556,198.82942322267962L994.853125,199.10637962184805L1010.6444444444445,199.42285587033777L1026.435763888889,199.4782675674831L1042.2270833333332,199.6697923643951L1058.0184027777777,199.8972773458399L1073.8097222222223,200.09482109009753L1089.6010416666668,200.19680325524456L1105.392361111111,200.46496864473707L1121.1836805555556,200.55564069242317L1136.9750000000001,200.71649701465634L1152.7663194444444,200.8900521459352L1168.5576388888887,201.04032680480344L1184.3489583333335,201.16244081562093L1200.1402777777778,201.29652829106467L1215.931597222222,201.38011087063958L1231.7229166666666,201.49729460872618L1247.5142361111111,201.60237372540277L1263.3055555555554,201.79959009523856L1279.096875,201.87464669113453L1294.8881944444445,201.9892637820932L1310.679513888889,202.12241890511493L1326.4708333333333,202.23142271239306" style="fill: none;" fill="none"></path></g><g><path stroke="rgb(0, 153, 136)" stroke-width="2px" d="M157.91319444444443,65.382255859375L173.7045138888889,81.18018503160346L189.49583333333334,79.60312925842493L205.28715277777775,95.63383533978367L221.07847222222222,104.95739904035878L236.86979166666666,116.28882344125634L252.66111111111113,123.45900256879861L268.45243055555557,129.70164647427933L284.24375000000003,135.23510791877882L300.03506944444445,140.17763306749677L315.82638888888886,142.5236958389799L331.6177083333333,145.34853110046234L347.4090277777778,149.11465721057837L363.2003472222222,152.1585053689202L378.9916666666667,155.54998366534645L394.78298611111114,158.03356576215603L410.5743055555555,160.1151445602326L426.36562499999997,161.51952554265836L442.15694444444443,163.35212395766146L457.9482638888889,164.97400135832166L473.7395833333333,167.13703978446543L489.5309027777778,168.81095524296052L505.32222222222225,169.7554947082092L521.1135416666666,171.179400626659L536.9048611111111,172.46237393559272L552.6961805555555,173.89736743522866L568.4875000000001,175.2607055428943L584.2788194444444,176.41008107245312L600.0701388888889,177.37248648223178L615.8614583333333,178.49878207288376L631.6527777777777,179.539541985861L647.4440972222222,180.3217047635648L663.2354166666667,181.312604288401L679.0267361111112,182.251932844111L694.8180555555556,182.85541649417758L710.609375,183.87002923108054L726.4006944444444,184.60065148664313L742.1920138888889,185.40968686630237L757.9833333333333,186.06435776198498L773.7746527777778,186.3833766102004L789.5659722222223,186.93780668324897L805.3572916666667,187.4343178305708L821.148611111111,188.00194797001322L836.9399305555556,188.68162777076213L852.7312499999999,189.23154676300365L868.5225694444446,189.96765969701423L884.3138888888889,190.44075428021392L900.1052083333333,190.88186576655474L915.8965277777778,191.19810088681612L931.6878472222222,191.62453715624957L947.4791666666666,192.06035054610888L963.2704861111112,192.37438891613644L979.0618055555556,192.79731926581954L994.853125,193.14685220603525L1010.6444444444445,193.5133842534829L1026.435763888889,193.77680123602576L1042.2270833333332,193.98036504767728L1058.0184027777777,194.2686206618615L1073.8097222222223,194.41329100202148L1089.6010416666668,194.81875919846607L1105.392361111111,194.97376753097086L1121.1836805555556,195.15091860405175L1136.9750000000001,195.48503148136274L1152.7663194444444,195.79209887010157L1168.5576388888887,195.76896132456778L1184.3489583333335,196.04760016502797L1200.1402777777778,196.26002939509206L1215.931597222222,196.46184581666958L1231.7229166666666,196.6273023664145L1247.5142361111111,196.75916088974077L1263.3055555555554,197.06559031097112L1279.096875,197.35747276393934L1294.8881944444445,197.59183440200823L1310.679513888889,197.84324107478466L1326.4708333333333,197.8668776472885" style="fill: none;" fill="none"></path></g></g></g></g><g opacity="0.2"><g><g><g><path stroke="rgb(238, 51, 119)" stroke-width="2px" d="M157.91319444444443,73.33971708984376L173.7045138888889,128.8479048339844L189.49583333333334,114.55597841796879L205.28715277777775,107.50896850585934L221.07847222222222,146.56929790039064L236.86979166666666,168.30874150390622L252.66111111111113,162.3623212402344L268.45243055555557,175.08570307617188L284.24375000000003,171.2676392578125L300.03506944444445,185.44191884765627L315.82638888888886,183.40534570312502L331.6177083333333,176.40085874023438L347.4090277777778,192.74467392578123L363.2003472222222,191.92698154296875L378.9916666666667,196.2869092285156L394.78298611111114,192.73800095214844L410.5743055555555,202.90111467285155L426.36562499999997,202.10167402343748L442.15694444444443,196.90247954101562L457.9482638888889,206.3032819580078L473.7395833333333,208.25028999023436L489.5309027777778,196.91353366699218L505.32222222222225,197.9063708984375L521.1135416666666,203.42367753906248L536.9048611111111,206.22155874023437L552.6961805555555,204.74340764160155L568.4875000000001,208.71000725097656L584.2788194444444,210.4436826171875L600.0701388888889,201.59031254882814L615.8614583333333,214.06453935546875L631.6527777777777,209.2468088623047L647.4440972222222,211.3369958984375L663.2354166666667,212.8091827392578L679.0267361111112,214.540096875L694.8180555555556,210.3389767578125L710.609375,216.5159873779297L726.4006944444444,213.81678334960938L742.1920138888889,214.74792548828125L757.9833333333333,212.65218837890626L773.7746527777778,213.5348893310547L789.5659722222223,215.81037333984375L805.3572916666667,212.63662424316405L821.148611111111,214.27901333007813L836.9399305555556,213.5022147705078L852.7312499999999,212.41421633300783L868.5225694444446,217.6499326904297L884.3138888888889,217.45414304199218L900.1052083333333,211.5175895751953L915.8965277777778,215.05691638183595L931.6878472222222,216.87853693847657L947.4791666666666,213.68594704589844L963.2704861111112,219.79008879394533L979.0618055555556,214.27360131835937L994.853125,209.82150375976562L1010.6444444444445,216.5121584716797L1026.435763888889,211.30588603515625L1042.2270833333332,214.66500573730468L1058.0184027777777,211.20515634765624L1073.8097222222223,213.41819052734374L1089.6010416666668,212.40676101074217L1105.392361111111,213.99546257324218L1121.1836805555556,214.32835651855467L1136.9750000000001,212.30599450683596L1152.7663194444444,212.6084412841797L1168.5576388888887,214.1755224121094L1184.3489583333335,217.18902810058594L1200.1402777777778,208.11608498535156L1215.931597222222,212.14052316894532L1231.7229166666666,211.5453767578125L1247.5142361111111,209.6351483154297L1263.3055555555554,208.8657498535156L1279.096875,215.52396931152344L1294.8881944444445,215.61914892578125L1310.679513888889,214.12076721191406L1326.4708333333333,210.36091013183594" style="fill: none;" fill="none"></path></g><g><path stroke="rgb(51, 187, 238)" stroke-width="2px" d="M157.91319444444443,90.57693759765624L173.7045138888889,80.7917074707031L189.49583333333334,133.7533412109375L205.28715277777775,147.30384042968748L221.07847222222222,150.22737602539064L236.86979166666666,149.68867836914063L252.66111111111113,162.91990571289062L268.45243055555557,177.5591212890625L284.24375000000003,180.2801482421875L300.03506944444445,177.78530288085935L315.82638888888886,182.42521933593753L331.6177083333333,185.74052751464845L347.4090277777778,171.35704790039063L363.2003472222222,193.74354904785156L378.9916666666667,198.70496477050781L394.78298611111114,186.92589614257815L410.5743055555555,200.22748884277343L426.36562499999997,188.20575407714844L442.15694444444443,201.83036472167967L457.9482638888889,201.88309501953125L473.7395833333333,202.4906485595703L489.5309027777778,196.47812443847656L505.32222222222225,203.45753022460937L521.1135416666666,199.69033747558592L536.9048611111111,181.72154736328125L552.6961805555555,204.1897717285156L568.4875000000001,210.81060412597657L584.2788194444444,201.68767353515625L600.0701388888889,207.5945161621094L615.8614583333333,210.72044995117187L631.6527777777777,207.66442131347657L647.4440972222222,208.1943290527344L663.2354166666667,204.73833618164062L679.0267361111112,213.16051249999998L694.8180555555556,215.56495517578125L710.609375,204.35605302734376L726.4006944444444,214.41049392089843L742.1920138888889,215.59015600585937L757.9833333333333,208.02123671875L773.7746527777778,209.7327117919922L789.5659722222223,212.87107111816408L805.3572916666667,205.28250107421874L821.148611111111,209.63187165527341L836.9399305555556,212.30234047851562L852.7312499999999,204.77266748046875L868.5225694444446,215.16920642089843L884.3138888888889,212.66549750976563L900.1052083333333,214.7544696044922L915.8965277777778,210.7147710205078L931.6878472222222,209.53260541992188L947.4791666666666,216.9506142578125L963.2704861111112,212.90000881347657L979.0618055555556,213.26529199218749L994.853125,207.79626086425782L1010.6444444444445,215.73542434082032L1026.435763888889,204.0834735595703L1042.2270833333332,206.98145856933596L1058.0184027777777,208.85969355468748L1073.8097222222223,209.52638344726563L1089.6010416666668,209.38993264160155L1105.392361111111,210.34387333984375L1121.1836805555556,205.00046899414062L1136.9750000000001,214.16731235351563L1152.7663194444444,213.18600786132814L1168.5576388888887,210.67597573242188L1184.3489583333335,215.47691794433595L1200.1402777777778,210.91740852050782L1215.931597222222,212.05811884765623L1231.7229166666666,211.23003503417968L1247.5142361111111,210.28134067382814L1263.3055555555554,211.210715625L1279.096875,213.67681657714843L1294.8881944444445,214.09848408203126L1310.679513888889,210.40808115234375L1326.4708333333333,206.48188754882813" style="fill: none;" fill="none"></path></g><g><path stroke="rgb(204, 51, 17)" stroke-width="2px" d="M157.91319444444443,83.50925527343747L173.7045138888889,125.21464096679688L189.49583333333334,129.88531752929688L205.28715277777775,152.30995126953124L221.07847222222222,147.8185337890625L236.86979166666666,168.98353100585936L252.66111111111113,157.56460966796874L268.45243055555557,169.18158486328124L284.24375000000003,183.66094360351565L300.03506944444445,177.38433540039063L315.82638888888886,188.18160251464843L331.6177083333333,180.58082783203125L347.4090277777778,200.28124079589844L363.2003472222222,193.90253149414062L378.9916666666667,197.49780083007812L394.78298611111114,199.14386235351563L410.5743055555555,199.2457241455078L426.36562499999997,200.21600212402342L442.15694444444443,198.9497294433594L457.9482638888889,200.0685984375L473.7395833333333,208.1342630859375L489.5309027777778,203.91007749023439L505.32222222222225,206.33974860839845L521.1135416666666,206.88564387207032L536.9048611111111,206.29451044921876L552.6961805555555,208.61138530273436L568.4875000000001,216.3154115966797L584.2788194444444,208.64185087890627L600.0701388888889,196.69843381347656L615.8614583333333,211.97680061035157L631.6527777777777,209.79009936523437L647.4440972222222,211.31312966308596L663.2354166666667,213.71188420410158L679.0267361111112,204.88169006347658L694.8180555555556,209.44150322265625L710.609375,211.0997509765625L726.4006944444444,209.13797036132812L742.1920138888889,211.8554905517578L757.9833333333333,213.44350180664063L773.7746527777778,211.38313605957032L789.5659722222223,213.08115473632813L805.3572916666667,210.89527265625L821.148611111111,212.49799206542968L836.9399305555556,210.67152094726563L852.7312499999999,213.91673989257814L868.5225694444446,213.99598720703125L884.3138888888889,212.51234125976563L900.1052083333333,207.58075603027345L915.8965277777778,209.85843061523437L931.6878472222222,212.16012790527344L947.4791666666666,209.0118649658203L963.2704861111112,215.00658835449218L979.0618055555556,210.58605166015627L994.853125,210.42928740234373L1010.6444444444445,212.54539318847657L1026.435763888889,201.80776865234375L1042.2270833333332,207.83056455078125L1058.0184027777777,209.71857429199218L1073.8097222222223,208.7337354248047L1089.6010416666668,204.71301569824217L1105.392361111111,212.48722326660155L1121.1836805555556,204.66971960449217L1136.9750000000001,208.1013216064453L1152.7663194444444,208.95001340332033L1168.5576388888887,208.09811857910157L1184.3489583333335,206.96118193359374L1200.1402777777778,207.7329182373047L1215.931597222222,205.43481975097654L1231.7229166666666,207.24120751953126L1247.5142361111111,206.8054853515625L1263.3055555555554,211.6625725830078L1279.096875,205.66506955566408L1294.8881944444445,207.83311408691407L1310.679513888889,208.97537990722657L1326.4708333333333,207.89322607421875" style="fill: none;" fill="none"></path></g><g><path stroke="rgb(0, 153, 136)" stroke-width="2px" d="M157.91319444444443,65.382255859375L173.7045138888889,96.82013491210938L189.49583333333334,76.4961716796875L205.28715277777775,142.7705074707031L221.07847222222222,141.32857451171876L236.86979166666666,171.26872534179685L252.66111111111113,164.9991858886719L268.45243055555557,171.68673881835934L284.24375000000003,177.55654414062502L300.03506944444445,182.4945078125L315.82638888888886,164.7319355957031L331.6177083333333,174.61809790039064L347.4090277777778,191.47565842285155L363.2003472222222,189.06643881835936L378.9916666666667,199.6194106689453L394.78298611111114,192.4416656982422L410.5743055555555,190.72617763671875L426.36562499999997,183.3557171875L442.15694444444443,193.37583598632813L457.9482638888889,192.88538623046875L473.7395833333333,206.1305946044922L489.5309027777778,200.34240205078123L505.32222222222225,188.30490065917968L521.1135416666666,200.27291108398438L536.9048611111111,199.68432719726562L552.6961805555555,205.46103303222657L568.4875000000001,206.29809084472657L584.2788194444444,203.4526704589844L600.0701388888889,200.74237548828125L615.8614583333333,206.68991865234375L631.6527777777777,206.35957424316405L647.4440972222222,201.05055642089846L663.2354166666667,208.29177287597656L679.0267361111112,208.50116618652345L694.8180555555556,200.14837958984376L710.609375,213.65771806640626L726.4006944444444,206.55957016601562L742.1920138888889,210.28310786132812L757.9833333333333,206.63876225585938L773.7746527777778,196.62478259277344L789.5659722222223,205.10747587890626L805.3572916666667,204.0347102294922L821.148611111111,207.3523102294922L836.9399305555556,212.29291547851562L852.7312499999999,208.68847885742187L868.5225694444446,216.48070805664062L884.3138888888889,207.7784693359375L900.1052083333333,207.32252575683594L915.8965277777778,203.1797044189453L931.6878472222222,208.0420748046875L947.4791666666666,209.10257138671875L963.2704861111112,204.84276591796876L979.0618055555556,209.83985673828124L994.853125,207.43693273925783L1010.6444444444445,208.71146149902341L1026.435763888889,204.85081950683593L1042.2270833333332,202.6541134033203L1058.0184027777777,206.7135916015625L1073.8097222222223,200.73996401367188L1089.6010416666668,212.7746489501953L1105.392361111111,201.92302241210936L1121.1836805555556,203.18882568359373L1136.9750000000001,210.82396848144532L1152.7663194444444,210.05241625976564L1168.5576388888887,194.6822845703125L1184.3489583333335,209.27912446289062L1200.1402777777778,206.4569352294922L1215.931597222222,206.25224521484375L1231.7229166666666,204.73736975097657L1247.5142361111111,203.28828520507813L1263.3055555555554,212.39042373046874L1279.096875,212.09778852539063L1294.8881944444445,209.54096274414061L1310.679513888889,210.78213583984373L1326.4708333333333,199.09459279785156" style="fill: none;" fill="none"></path></g></g></g></g></g></g><g transform="translate(74, 377)" clip-path="url(#clip_1)"><clipPath id="clip_1"><rect width="1421" height="23"></rect></clipPath><g><g><line x1="0" y1="0" x2="0" y2="5" style="visibility: inherit;" fill="rgb(0, 0, 0)" stroke="rgb(204, 204, 204)" stroke-width="1px"></line><line x1="157.91319444444443" y1="0" x2="157.91319444444443" y2="5" style="visibility: inherit;" fill="rgb(0, 0, 0)" stroke="rgb(204, 204, 204)" stroke-width="1px"></line><line x1="315.82638888888886" y1="0" x2="315.82638888888886" y2="5" style="visibility: inherit;" fill="rgb(0, 0, 0)" stroke="rgb(204, 204, 204)" stroke-width="1px"></line><line x1="473.7395833333333" y1="0" x2="473.7395833333333" y2="5" style="visibility: inherit;" fill="rgb(0, 0, 0)" stroke="rgb(204, 204, 204)" stroke-width="1px"></line><line x1="631.6527777777777" y1="0" x2="631.6527777777777" y2="5" style="visibility: inherit;" fill="rgb(0, 0, 0)" stroke="rgb(204, 204, 204)" stroke-width="1px"></line><line x1="789.5659722222223" y1="0" x2="789.5659722222223" y2="5" style="visibility: inherit;" fill="rgb(0, 0, 0)" stroke="rgb(204, 204, 204)" stroke-width="1px"></line><line x1="947.4791666666666" y1="0" x2="947.4791666666666" y2="5" style="visibility: inherit;" fill="rgb(0, 0, 0)" stroke="rgb(204, 204, 204)" stroke-width="1px"></line><line x1="1105.392361111111" y1="0" x2="1105.392361111111" y2="5" style="visibility: inherit;" fill="rgb(0, 0, 0)" stroke="rgb(204, 204, 204)" stroke-width="1px"></line><line x1="1263.3055555555554" y1="0" x2="1263.3055555555554" y2="5" style="visibility: inherit;" fill="rgb(0, 0, 0)" stroke="rgb(204, 204, 204)" stroke-width="1px"></line><line x1="1421.21875" y1="0" x2="1421.21875" y2="5" style="visibility: inherit;" fill="rgb(0, 0, 0)" stroke="rgb(204, 204, 204)" stroke-width="1px"></line></g><g transform="translate(0, 8)"><text x="0" y="0" dx="0em" dy="0.95em" style="text-anchor: middle; visibility: hidden; font-family: &quot;Helvetica Neue&quot;, sans-serif; font-size: 12px; font-weight: 200;" fill="rgb(50, 49, 63)" stroke="none" stroke-width="1px">-10</text><text x="157.91319444444443" y="0" dx="0em" dy="0.95em" style="text-anchor: middle; visibility: inherit; font-family: &quot;Helvetica Neue&quot;, sans-serif; font-size: 12px; font-weight: 200;" fill="rgb(50, 49, 63)" stroke="none" stroke-width="1px">0</text><text x="315.82638888888886" y="0" dx="0em" dy="0.95em" style="text-anchor: middle; visibility: inherit; font-family: &quot;Helvetica Neue&quot;, sans-serif; font-size: 12px; font-weight: 200;" fill="rgb(50, 49, 63)" stroke="none" stroke-width="1px">10</text><text x="473.7395833333333" y="0" dx="0em" dy="0.95em" style="text-anchor: middle; visibility: inherit; font-family: &quot;Helvetica Neue&quot;, sans-serif; font-size: 12px; font-weight: 200;" fill="rgb(50, 49, 63)" stroke="none" stroke-width="1px">20</text><text x="631.6527777777777" y="0" dx="0em" dy="0.95em" style="text-anchor: middle; visibility: inherit; font-family: &quot;Helvetica Neue&quot;, sans-serif; font-size: 12px; font-weight: 200;" fill="rgb(50, 49, 63)" stroke="none" stroke-width="1px">30</text><text x="789.5659722222223" y="0" dx="0em" dy="0.95em" style="text-anchor: middle; visibility: inherit; font-family: &quot;Helvetica Neue&quot;, sans-serif; font-size: 12px; font-weight: 200;" fill="rgb(50, 49, 63)" stroke="none" stroke-width="1px">40</text><text x="947.4791666666666" y="0" dx="0em" dy="0.95em" style="text-anchor: middle; visibility: inherit; font-family: &quot;Helvetica Neue&quot;, sans-serif; font-size: 12px; font-weight: 200;" fill="rgb(50, 49, 63)" stroke="none" stroke-width="1px">50</text><text x="1105.392361111111" y="0" dx="0em" dy="0.95em" style="text-anchor: middle; visibility: inherit; font-family: &quot;Helvetica Neue&quot;, sans-serif; font-size: 12px; font-weight: 200;" fill="rgb(50, 49, 63)" stroke="none" stroke-width="1px">60</text><text x="1263.3055555555554" y="0" dx="0em" dy="0.95em" style="text-anchor: middle; visibility: inherit; font-family: &quot;Helvetica Neue&quot;, sans-serif; font-size: 12px; font-weight: 200;" fill="rgb(50, 49, 63)" stroke="none" stroke-width="1px">70</text><text x="1421.21875" y="0" dx="0em" dy="0.95em" style="text-anchor: middle; visibility: hidden; font-family: &quot;Helvetica Neue&quot;, sans-serif; font-size: 12px; font-weight: 200;" fill="rgb(50, 49, 63)" stroke="none" stroke-width="1px">80</text></g><line x1="0" y1="0" x2="1421.21875" y2="0" fill="rgb(0, 0, 0)" stroke="rgb(204, 204, 204)" stroke-width="1px"></line></g></g></g></g></svg>