<svg viewBox="0 0 330 200" xmlns="http://www.w3.org/2000/svg"><g><g><g><g><g><line x1="74.78125" y1="177" x2="69.78125" y2="177" style="visibility: inherit;" fill="rgb(0, 0, 0)" stroke="rgb(204, 204, 204)" stroke-width="1px"></line><line x1="74.78125" y1="159.3" x2="69.78125" y2="159.3" style="visibility: inherit;" fill="rgb(0, 0, 0)" stroke="rgb(204, 204, 204)" stroke-width="1px"></line><line x1="74.78125" y1="141.6" x2="69.78125" y2="141.6" style="visibility: inherit;" fill="rgb(0, 0, 0)" stroke="rgb(204, 204, 204)" stroke-width="1px"></line><line x1="74.78125" y1="123.9" x2="69.78125" y2="123.9" style="visibility: inherit;" fill="rgb(0, 0, 0)" stroke="rgb(204, 204, 204)" stroke-width="1px"></line><line x1="74.78125" y1="106.2" x2="69.78125" y2="106.2" style="visibility: inherit;" fill="rgb(0, 0, 0)" stroke="rgb(204, 204, 204)" stroke-width="1px"></line><line x1="74.78125" y1="88.5" x2="69.78125" y2="88.5" style="visibility: inherit;" fill="rgb(0, 0, 0)" stroke="rgb(204, 204, 204)" stroke-width="1px"></line><line x1="74.78125" y1="70.8" x2="69.78125" y2="70.8" style="visibility: inherit;" fill="rgb(0, 0, 0)" stroke="rgb(204, 204, 204)" stroke-width="1px"></line><line x1="74.78125" y1="53.10000000000001" x2="69.78125" y2="53.10000000000001" style="visibility: inherit;" fill="rgb(0, 0, 0)" stroke="rgb(204, 204, 204)" stroke-width="1px"></line><line x1="74.78125" y1="35.400000000000006" x2="69.78125" y2="35.400000000000006" style="visibility: inherit;" fill="rgb(0, 0, 0)" stroke="rgb(204, 204, 204)" stroke-width="1px"></line><line x1="74.78125" y1="17.69999999999999" x2="69.78125" y2="17.69999999999999" style="visibility: inherit;" fill="rgb(0, 0, 0)" stroke="rgb(204, 204, 204)" stroke-width="1px"></line><line x1="74.78125" y1="0" x2="69.78125" y2="0" style="visibility: inherit;" fill="rgb(0, 0, 0)" stroke="rgb(204, 204, 204)" stroke-width="1px"></line></g><g transform="translate(64.78125, 0)"><text x="0" y="177" dx="0em" dy="0.3em" style="text-anchor: end; visibility: hidden; font-family: &quot;Helvetica Neue&quot;, sans-serif; font-size: 12px; font-weight: 200;" fill="rgb(50, 49, 63)" stroke="none" stroke-width="1px">-2e+3</text><text x="0" y="159.3" dx="0em" dy="0.3em" style="text-anchor: end; visibility: inherit; font-family: &quot;Helvetica Neue&quot;, sans-serif; font-size: 12px; font-weight: 200;" fill="rgb(50, 49, 63)" stroke="none" stroke-width="1px">0</text><text x="0" y="141.6" dx="0em" dy="0.3em" style="text-anchor: end; visibility: hidden; font-family: &quot;Helvetica Neue&quot;, sans-serif; font-size: 12px; font-weight: 200;" fill="rgb(50, 49, 63)" stroke="none" stroke-width="1px">2e+3</text><text x="0" y="123.9" dx="0em" dy="0.3em" style="text-anchor: end; visibility: inherit; font-family: &quot;Helvetica Neue&quot;, sans-serif; font-size: 12px; font-weight: 200;" fill="rgb(50, 49, 63)" stroke="none" stroke-width="1px">4e+3</text><text x="0" y="106.2" dx="0em" dy="0.3em" style="text-anchor: end; visibility: hidden; font-family: &quot;Helvetica Neue&quot;, sans-serif; font-size: 12px; font-weight: 200;" fill="rgb(50, 49, 63)" stroke="none" stroke-width="1px">6e+3</text><text x="0" y="88.5" dx="0em" dy="0.3em" style="text-anchor: end; visibility: inherit; font-family: &quot;Helvetica Neue&quot;, sans-serif; font-size: 12px; font-weight: 200;" fill="rgb(50, 49, 63)" stroke="none" stroke-width="1px">8e+3</text><text x="0" y="70.8" dx="0em" dy="0.3em" style="text-anchor: end; visibility: hidden; font-family: &quot;Helvetica Neue&quot;, sans-serif; font-size: 12px; font-weight: 200;" fill="rgb(50, 49, 63)" stroke="none" stroke-width="1px">1e+4</text><text x="0" y="53.10000000000001" dx="0em" dy="0.3em" style="text-anchor: end; visibility: inherit; font-family: &quot;Helvetica Neue&quot;, sans-serif; font-size: 12px; font-weight: 200;" fill="rgb(50, 49, 63)" stroke="none" stroke-width="1px">1.2e+4</text><text x="0" y="35.400000000000006" dx="0em" dy="0.3em" style="text-anchor: end; visibility: hidden; font-family: &quot;Helvetica Neue&quot;, sans-serif; font-size: 12px; font-weight: 200;" fill="rgb(50, 49, 63)" stroke="none" stroke-width="1px">1.4e+4</text><text x="0" y="17.69999999999999" dx="0em" dy="0.3em" style="text-anchor: end; visibility: inherit; font-family: &quot;Helvetica Neue&quot;, sans-serif; font-size: 12px; font-weight: 200;" fill="rgb(50, 49, 63)" stroke="none" stroke-width="1px">1.6e+4</text><text x="0" y="0" dx="0em" dy="0.3em" style="text-anchor: end; visibility: hidden; font-family: &quot;Helvetica Neue&quot;, sans-serif; font-size: 12px; font-weight: 200;" fill="rgb(50, 49, 63)" stroke="none" stroke-width="1px">1.8e+4</text></g><line x1="74.78125" y1="0" x2="74.78125" y2="177" fill="rgb(0, 0, 0)" stroke="rgb(204, 204, 204)" stroke-width="1px"></line></g></g><g transform="translate(74, 0)" clip-path="url(#clip_0)"><clipPath id="clip_0"><rect width="255" height="177"></rect></clipPath><g><g><g><line x1="0" y1="0" x2="0" y2="177" fill="rgb(0, 0, 0)" stroke="rgb(60, 60, 60)" stroke-width="1px" opacity="0.25"></line><line x1="28.357638888888886" y1="0" x2="28.357638888888886" y2="177" fill="rgb(0, 0, 0)" stroke="rgb(60, 60, 60)" stroke-width="1px" opacity="0.25"></line><line x1="56.71527777777777" y1="0" x2="56.71527777777777" y2="177" fill="rgb(0, 0, 0)" stroke="rgb(60, 60, 60)" stroke-width="1px" opacity="0.25"></line><line x1="85.07291666666666" y1="0" x2="85.07291666666666" y2="177" fill="rgb(0, 0, 0)" stroke="rgb(60, 60, 60)" stroke-width="1px" opacity="0.25"></line><line x1="113.43055555555554" y1="0" x2="113.43055555555554" y2="177" fill="rgb(0, 0, 0)" stroke="rgb(60, 60, 60)" stroke-width="1px" opacity="0.25"></line><line x1="141.78819444444446" y1="0" x2="141.78819444444446" y2="177" fill="rgb(0, 0, 0)" stroke="rgb(60, 60, 60)" stroke-width="1px" opacity="0.25"></line><line x1="170.14583333333331" y1="0" x2="170.14583333333331" y2="177" fill="rgb(0, 0, 0)" stroke="rgb(60, 60, 60)" stroke-width="1px" opacity="0.25"></line><line x1="198.50347222222223" y1="0" x2="198.50347222222223" y2="177" fill="rgb(0, 0, 0)" stroke="rgb(60, 60, 60)" stroke-width="1px" opacity="0.25"></line><line x1="226.8611111111111" y1="0" x2="226.8611111111111" y2="177" fill="rgb(0, 0, 0)" stroke="rgb(60, 60, 60)" stroke-width="1px" opacity="0.25"></line><line x1="255.21875" y1="0" x2="255.21875" y2="177" fill="rgb(0, 0, 0)" stroke="rgb(60, 60, 60)" stroke-width="1px" opacity="0.25"></line></g><g><line x1="0" y1="177" x2="255.21875" y2="177" fill="rgb(0, 0, 0)" stroke="rgb(60, 60, 60)" stroke-width="1px" opacity="0.25"></line><line x1="0" y1="159.3" x2="255.21875" y2="159.3" fill="rgb(0, 0, 0)" stroke="rgb(60, 60, 60)" stroke-width="1px" opacity="0.25"></line><line x1="0" y1="141.6" x2="255.21875" y2="141.6" fill="rgb(0, 0, 0)" stroke="rgb(60, 60, 60)" stroke-width="1px" opacity="0.25"></line><line x1="0" y1="123.9" x2="255.21875" y2="123.9" fill="rgb(0, 0, 0)" stroke="rgb(60, 60, 60)" stroke-width="1px" opacity="0.25"></line><line x1="0" y1="106.2" x2="255.21875" y2="106.2" fill="rgb(0, 0, 0)" stroke="rgb(60, 60, 60)" stroke-width="1px" opacity="0.25"></line><line x1="0" y1="88.5" x2="255.21875" y2="88.5" fill="rgb(0, 0, 0)" stroke="rgb(60, 60, 60)" stroke-width="1px" opacity="0.25"></line><line x1="0" y1="70.8" x2="255.21875" y2="70.8" fill="rgb(0, 0, 0)" stroke="rgb(60, 60, 60)" stroke-width="1px" opacity="0.25"></line><line x1="0" y1="53.10000000000001" x2="255.21875" y2="53.10000000000001" fill="rgb(0, 0, 0)" stroke="rgb(60, 60, 60)" stroke-width="1px" opacity="0.25"></line><line x1="0" y1="35.400000000000006" x2="255.21875" y2="35.400000000000006" fill="rgb(0, 0, 0)" stroke="rgb(60, 60, 60)" stroke-width="1px" opacity="0.25"></line><line x1="0" y1="17.69999999999999" x2="255.21875" y2="17.69999999999999" fill="rgb(0, 0, 0)" stroke="rgb(60, 60, 60)" stroke-width="1px" opacity="0.25"></line><line x1="0" y1="0" x2="255.21875" y2="0" fill="rgb(0, 0, 0)" stroke="rgb(60, 60, 60)" stroke-width="1px" opacity="0.25"></line></g></g></g><g><g><line x1="0" y1="159.3" x2="255.21875" y2="159.3" fill="rgb(0, 0, 0)" stroke="rgb(153, 153, 153)" stroke-width="1.5px"></line></g></g><g><g><line x1="28.357638888888886" y1="0" x2="28.357638888888886" y2="177" fill="rgb(0, 0, 0)" stroke="rgb(153, 153, 153)" stroke-width="1.5px"></line></g></g><g><g><g><g><g><path stroke="rgb(238, 51, 119)" stroke-width="2px" d="M28.357638888888886,34.43270537109376L31.193402777777777,47.528621597734826L34.02916666666667,49.63459596778408L36.86493055555555,49.84788324940227L39.700694444444444,53.7176727327961L42.53645833333333,58.04143834068243L45.37222222222223,60.7185736342844L48.20798611111111,63.49941401455672L51.04375,65.45472425720394L53.87951388888889,67.71471042728575L56.71527777777777,69.47212136292084L59.55104166666667,70.64691033310888L62.386805555555554,72.26726573387738L65.22256944444445,73.62658910799097L68.05833333333334,74.95066485005498L70.89409722222223,75.99676869873433L73.7298611111111,77.22336293278093L76.565625,78.29067638784078L79.40138888888889,79.10492837372294L82.23715277777778,80.07990465431033L85.07291666666666,81.00977166891985L87.90868055555555,81.58649107770121L90.74444444444445,82.13545167600513L93.58020833333333,82.75933370096138L96.41597222222222,83.39219685915572L99.25173611111111,83.94595371255413L102.0875,84.53682826714781L104.92326388888888,85.11843304356505L107.75902777777777,85.49526710345454L110.59479166666667,86.07180202221761L113.43055555555554,86.5263741315467L116.26631944444445,86.98799583498408L119.10208333333334,87.4458940575296L121.93784722222223,87.9046943990336L124.77361111111111,88.27051918317288L127.609375,88.71134454899875L130.4451388888889,89.08728240564321L133.28090277777778,89.45698421867691L136.11666666666667,89.77716004999611L138.95243055555554,90.09364727287938L141.78819444444446,90.42612779541153L144.62395833333332,90.69928513878874L147.4597222222222,90.98152889013443L150.2954861111111,91.2405443344048L153.13125,91.47382488697868L155.9670138888889,91.76319918077358L158.80277777777778,92.03760429695122L161.63854166666667,92.22754093575584L164.47430555555556,92.45230856574523L167.31006944444445,92.68956035204499L170.14583333333331,92.87994199844215L172.98159722222223,93.13325355231247L175.8173611111111,93.31407715578511L178.653125,93.43814275608588L181.4888888888889,93.63156194991201L184.32465277777777,93.76110949595734L187.16041666666666,93.9221583421978L189.99618055555555,94.04073250373004L192.83194444444445,94.17840367147045L195.66770833333334,94.30086821489698L198.50347222222223,94.43547325826147L201.3392361111111,94.56897365004768L204.175,94.67786101751476L207.0107638888889,94.78622775823328L209.84652777777777,94.90648656952318L212.68229166666669,95.05215451463064L215.51805555555555,95.10638802554524L218.35381944444444,95.19712960289257L221.18958333333333,95.27955439918624L224.02534722222222,95.34177835401852L226.8611111111111,95.39509747395358L229.696875,95.50757226099677L232.5326388888889,95.61769376098749L235.3684027777778,95.7113001898903L238.20416666666668,95.76895476336765" style="fill: none;" fill="none"></path></g><g><path stroke="rgb(51, 187, 238)" stroke-width="2px" d="M28.357638888888886,42.52551181640624L31.193402777777777,40.21690547905553L34.02916666666667,47.81926097024481L36.86493055555555,53.234780064109L39.700694444444444,56.76393592386103L42.53645833333333,59.07328956263906L45.37222222222223,61.637070697968994L48.20798611111111,64.44933454414875L51.04375,66.78407496036291L53.87951388888889,68.52908431662722L56.71527777777777,70.16471825437239L59.55104166666667,71.66449391369436L62.386805555555554,72.38191975270159L65.22256944444445,73.79748645227167L68.05833333333334,75.19047449769627L70.89409722222223,76.03673149120658L73.7298611111111,77.18085750819006L76.565625,77.85650252252753L79.40138888888889,78.82882702738154L82.23715277777778,79.70499894878121L85.07291666666666,80.51245060975764L87.90868055555555,81.10393530710292L90.74444444444445,81.80255757007662L93.58020833333333,82.36018904060579L96.41597222222222,82.49329609394036L99.25173611111111,83.07483950360621L102.0875,83.74386592629202L104.92326388888888,84.19019919900649L107.75902777777777,84.71524409589529L110.59479166666667,85.2614288496333L113.43055555555554,85.71852054668727L116.26631944444445,86.15586704065757L119.10208333333334,86.50900361187841L121.93784722222223,86.97779477373004L124.77361111111111,87.45761211980597L127.609375,87.73716123700615L130.4451388888889,88.15344442853637L133.28090277777778,88.56501995696071L136.11666666666667,88.84565326640204L138.95243055555554,89.13635415639477L141.78819444444446,89.45631838921025L144.62395833333332,89.65736919425292L147.4597222222222,89.90712770421503L150.2954861111111,90.18044313647735L153.13125,90.34424939686441L155.9670138888889,90.63267507194331L158.80277777777778,90.87739091026748L161.63854166666667,91.13735228499621L164.47430555555556,91.33773129670887L167.31006944444445,91.51588576133172L170.14583333333331,91.77375184586909L172.98159722222223,91.97476611453219L175.8173611111111,92.17217933642647L178.653125,92.30080651785045L181.4888888888889,92.51242119730158L184.32465277777777,92.58918622672832L187.16041666666666,92.6943877778011L189.99618055555555,92.81582758143651L192.83194444444445,92.94003439035245L195.66770833333334,93.05856778116504L198.50347222222223,93.18287191225888L201.3392361111111,93.24894529336643L204.175,93.40460169949885L207.0107638888889,93.54552352228077L209.84652777777777,93.65739473726055L212.68229166666669,93.81224595751677L215.51805555555555,93.918623233464L218.35381944444444,94.03257312309894L221.18958333333333,94.13532139106063L224.02534722222222,94.22620188853712L226.8611111111111,94.3229730041466L229.696875,94.43942624123133L232.5326388888889,94.55636113172017L235.3684027777778,94.63697326415812L238.20416666666668,94.68052054828692" style="fill: none;" fill="none"></path></g><g><path stroke="rgb(204, 51, 17)" stroke-width="2px" d="M28.357638888888886,39.207263085937484L31.193402777777777,49.04671667713575L34.02916666666667,53.06473732215966L36.86493055555555,57.74552695567705L39.700694444444444,60.123551519486114L42.53645833333333,63.406803910398196L45.37222222222223,64.96258628186746L48.20798611111111,66.8352725094386L51.04375,69.07766295165813L53.87951388888889,70.56311421478848L56.71527777777777,72.26262718456461L59.55104166666667,73.36453616273674L62.386805555555554,75.05190407043895L65.22256944444445,76.26973668270004L68.05833333333334,77.44556214656212L70.89409722222223,78.52617666252452L73.7298611111111,79.48244837035533L76.565625,80.35975201437417L79.40138888888889,81.11026982479356L82.23715277777778,81.81436809979246L85.07291666666666,82.65021516525442L87.90868055555555,83.30983072153903L90.74444444444445,83.96713688153748L93.58020833333333,84.58139292679364L96.41597222222222,85.13378891299126L99.25173611111111,85.69078150678519L102.0875,86.35848430928344L104.92326388888888,86.83133170140599L107.75902777777777,87.04957502939902L110.59479166666667,87.52874165789157L113.43055555555554,87.93841716524888L116.26631944444445,88.34828809147551L119.10208333333334,88.77300959395215L121.93784722222223,89.02929604834253L124.77361111111111,89.34298966111177L127.609375,89.66472644557251L130.4451388888889,89.939229534671L133.28090277777778,90.23931516209838L136.11666666666667,90.5468221917142L138.95243055555554,90.80954053573574L141.78819444444446,91.08288145716213L144.62395833333332,91.31322332844188L147.4597222222222,91.55414101968141L150.2954861111111,91.7599479203073L153.13125,91.99834166215697L155.9670138888889,92.22720345893134L158.80277777777778,92.42765509950158L161.63854166666667,92.55910412856424L164.47430555555556,92.71258468032812L167.31006944444445,92.8871633424049L170.14583333333331,93.01789901558263L172.98159722222223,93.21264558335064L175.8173611111111,93.34962310454719L178.653125,93.47965303200823L181.4888888888889,93.62823737148483L184.32465277777777,93.65425294282363L187.16041666666666,93.74417307293882L189.99618055555555,93.85097636661449L192.83194444444445,93.94372236856037L195.66770833333334,93.99160258933233L198.50347222222223,94.11750517272802L201.3392361111111,94.16007533835251L204.175,94.23559674162911L207.0107638888889,94.31708018522687L209.84652777777777,94.38763353965572L212.68229166666669,94.44496558186978L215.51805555555555,94.50791911808606L218.35381944444444,94.54716080663981L221.18958333333333,94.60217810542316L224.02534722222222,94.65151233261615L226.8611111111111,94.74410463357354L229.696875,94.77934340671302L232.5326388888889,94.83315567488194L235.3684027777778,94.89567147534574L238.20416666666668,94.94684832916066" style="fill: none;" fill="none"></path></g><g><path stroke="rgb(0, 153, 136)" stroke-width="2px" d="M28.357638888888886,30.696708984374993L31.193402777777777,38.11377387425412L34.02916666666667,37.373352463504546L36.86493055555555,44.8997051860523L39.700694444444444,49.277081247065L42.53645833333333,54.597139918043425L45.37222222222223,57.963510489860354L48.20798611111111,60.89440696537784L51.04375,63.49234509714549L53.87951388888889,65.81284098924914L56.71527777777777,66.91430812599322L59.55104166666667,68.24055704186162L62.386805555555554,70.00873826597446L65.22256944444445,71.43781286551426L68.05833333333334,73.0300984317409L70.89409722222223,74.19613034456663L73.7298611111111,75.17342330811982L76.565625,75.83277459164597L79.40138888888889,76.6931722559843L82.23715277777778,77.45463724250115L85.07291666666666,78.47017517732196L87.90868055555555,79.25607182494433L90.74444444444445,79.699529345764L93.58020833333333,80.36804750906802L96.41597222222222,80.97039837294406L99.25173611111111,81.64412211149994L102.0875,82.28420392862677L104.92326388888888,82.82383116664245L107.75902777777777,83.27567667733429L110.59479166666667,83.80446797586319L113.43055555555554,84.29310061405145L116.26631944444445,84.6603229261299L119.10208333333334,85.12554631046943L121.93784722222223,85.56655732999376L124.77361111111111,85.84989050257144L127.609375,86.32624714562667L130.4451388888889,86.6692713876282L133.28090277777778,87.04911027940456L136.11666666666667,87.35647566013618L138.95243055555554,87.50625374006756L141.78819444444446,87.76655645340867L144.62395833333332,87.99966646156771L147.4597222222222,88.26616655356058L150.2954861111111,88.58527351571591L153.13125,88.84345829456669L155.9670138888889,89.18906038825337L158.80277777777778,89.41117641272643L161.63854166666667,89.61827650047795L164.47430555555556,89.76674763121075L167.31006944444445,89.96695776301372L170.14583333333331,90.17157041554714L172.98159722222223,90.31901018078554L175.8173611111111,90.51757429721502L178.653125,90.68167862193167L181.4888888888889,90.85376395985803L184.32465277777777,90.97743718508372L187.16041666666666,91.07300958471852L189.99618055555555,91.20834444867236L192.83194444444445,91.27626659776605L195.66770833333334,91.4666323027281L198.50347222222223,91.53940809809507L201.3392361111111,91.62257982206143L204.175,91.77944448859736L207.0107638888889,91.9236114058567L209.84652777777777,91.91274842028778L212.68229166666669,92.04356824724125L215.51805555555555,92.1433029255472L218.35381944444444,92.23805493249475L221.18958333333333,92.3157361242848L224.02534722222222,92.37764317635043L226.8611111111111,92.52151057040288L229.696875,92.65854822073545L232.5326388888889,92.76858007733543L235.3684027777778,92.88661450991215L238.20416666666668,92.89771178665801" style="fill: none;" fill="none"></path></g></g></g></g><g opacity="0.2"><g><g><g><path stroke="rgb(238, 51, 119)" stroke-width="2px" d="M28.357638888888886,34.43270537109373L31.193402777777777,60.49357866210937L34.02916666666667,53.78357607421876L36.86493055555555,50.47503295898437L39.700694444444444,68.81370219726563L42.53645833333333,79.02028447265624L45.37222222222223,76.22846381835937L48.20798611111111,82.20204096679687L51.04375,80.4094751953125L53.87951388888889,87.06424306640626L56.71527777777777,86.108080078125L59.55104166666667,82.81950131835939L62.386805555555554,90.49285751953124L65.22256944444445,90.10895419921874L68.05833333333334,92.15592290039062L70.89409722222223,90.48972458496094L73.7298611111111,95.26126604003906L76.565625,94.8859318359375L79.40138888888889,92.44493071289062L82.23715277777778,96.8585700439453L85.07291666666666,97.77268256835937L87.90868055555555,92.45012058105468L90.74444444444445,92.9162537109375L93.58020833333333,95.5066072265625L96.41597222222222,96.82020131835938L99.25173611111111,96.12621525878906L102.0875,97.98851799316407L104.92326388888888,98.8024716796875L107.75902777777777,94.64584965820313L110.59479166666667,100.50244951171875L113.43055555555554,98.2405442138672L116.26631944444445,99.2218787109375L119.10208333333334,99.9130645751953L121.93784722222223,100.725721875L124.77361111111111,98.7533126953125L127.609375,101.65339460449219L130.4451388888889,100.38612905273438L133.28090277777778,100.82329658203125L136.11666666666667,99.83935634765625L138.95243055555554,100.25378093261719L141.78819444444446,101.32211162109374L144.62395833333332,99.83204904785156L147.4597222222222,100.60314418945312L150.2954861111111,100.23844035644531L153.13125,99.72762941894531L155.9670138888889,102.18577741699218L158.80277777777778,102.09385495605468L161.63854166666667,99.30666672363282L164.47430555555556,100.96836657714844L167.31006944444445,101.82361018066406L170.14583333333331,100.32470192871094L172.98159722222223,103.19057219238282L175.8173611111111,100.60060327148437L178.653125,98.51036118164062L181.4888888888889,101.65159694824219L184.32465277777777,99.20727275390625L187.16041666666666,100.78436608886719L189.99618055555555,99.15998056640625L192.83194444444445,100.19899130859375L195.66770833333334,99.72412917480469L198.50347222222223,100.47001823730469L201.3392361111111,100.62631062011718L204.175,99.67681970214844L207.0107638888889,99.81881726074218L209.84652777777777,100.55455561523438L212.68229166666669,101.96938454589844L215.51805555555555,97.70967385253905L218.35381944444444,99.59913156738281L221.18958333333333,99.3197126953125L224.02534722222222,98.42286804199219L226.8611111111111,98.06163852539062L229.696875,101.18764606933594L232.5326388888889,101.23233251953125L235.3684027777778,100.52884826660156L238.20416666666668,98.76361032714844" style="fill: none;" fill="none"></path></g><g><path stroke="rgb(51, 187, 238)" stroke-width="2px" d="M28.357638888888886,42.52551181640624L31.193402777777777,37.93138520507813L34.02916666666667,62.79666152343749L36.86493055555555,69.1585669921875L39.700694444444444,70.53115532226563L42.53645833333333,70.27823891601562L45.37222222222223,76.49024750976562L48.20798611111111,83.3633009765625L51.04375,84.6408123046875L53.87951388888889,83.46949233398436L56.71527777777777,85.6479146484375L59.55104166666667,87.20443864746093L62.386805555555554,80.45145219726562L65.22256944444445,90.96182541503907L68.05833333333334,93.29119035644531L70.89409722222223,87.76096450195314L73.7298611111111,94.00600935058594L76.565625,88.36185270996094L79.40138888888889,94.75855319824218L82.23715277777778,94.78330986328126L85.07291666666666,95.06855383300781L87.90868055555555,92.24569768066407L90.74444444444445,95.52250092773437L93.58020833333333,93.75381892089844L96.41597222222222,85.31754345703125L99.25173611111111,95.86628540039062L102.0875,98.97473986816406L104.92326388888888,94.69156025390626L107.75902777777777,97.46479936523437L110.59479166666667,98.93241284179688L113.43055555555554,97.49761955566407L116.26631944444445,97.74640913085938L119.10208333333334,96.12383422851562L121.93784722222223,100.0780125L124.77361111111111,101.20688876953125L127.609375,95.94435380859375L130.4451388888889,100.66487380371093L133.28090277777778,101.21872045898438L136.11666666666667,97.66514296874999L138.95243055555554,98.46867370605469L141.78819444444446,99.94212092285157L144.62395833333332,96.37931748046874L147.4597222222222,98.42132966308593L150.2954861111111,99.67510415039062L153.13125,96.13995263671875L155.9670138888889,101.02108630371094L158.80277777777778,99.84560493164062L161.63854166666667,100.82636901855469L164.47430555555556,98.9297466064453L167.31006944444445,98.37472456054688L170.14583333333331,101.8574501953125L172.98159722222223,99.95570705566406L175.8173611111111,100.1272060546875L178.653125,97.55951770019531L181.4888888888889,101.2869233642578L184.32465277777777,95.8163788330078L187.16041666666666,97.17697126464844L189.99618055555555,98.0587951171875L192.83194444444445,98.37180336914062L195.66770833333334,98.30774025878905L198.50347222222223,98.75561162109375L201.3392361111111,96.24690454101562L204.175,100.55070102539062L207.0107638888889,100.08998247070312L209.84652777777777,98.91153237304687L212.68229166666669,101.16555563964845L215.51805555555555,99.02488410644531L218.35381944444444,99.56044306640625L221.18958333333333,99.17166101074218L224.02534722222222,98.72625278320312L226.8611111111111,99.16259062499999L229.696875,100.32041520996094L232.5326388888889,100.51838642578124L235.3684027777778,98.78575693359375L238.20416666666668,96.94242465820312" style="fill: none;" fill="none"></path></g><g><path stroke="rgb(204, 51, 17)" stroke-width="2px" d="M28.357638888888886,39.207263085937484L31.193402777777777,58.78777573242188L34.02916666666667,60.980639794921885L36.86493055555555,71.50891611328124L39.700694444444444,69.4002134765625L42.53645833333333,79.33709545898436L45.37222222222223,73.97595732421874L48.20798611111111,79.43008095703125L51.04375,86.22808227539063L53.87951388888889,83.28123969726563L56.71527777777777,88.35051364746094L59.55104166666667,84.78198017578124L62.386805555555554,94.03124567871095L65.22256944444445,91.03646704101563L68.05833333333334,92.72443168945313L70.89409722222223,93.49725102539063L73.7298611111111,93.54507473144531L76.565625,94.00061638183594L79.40138888888889,93.40610639648438L82.23715277777778,93.93141093749999L85.07291666666666,97.7182083984375L87.90868055555555,95.73497006835937L90.74444444444445,96.87569099121094L93.58020833333333,97.13198664550781L96.41597222222222,96.85445185546875L99.25173611111111,97.94221538085938L102.0875,101.55922507324219L104.92326388888888,97.95651884765626L107.75902777777777,92.34913205566406L110.59479166666667,99.52226447753907L113.43055555555554,98.49561694335937L116.26631944444445,99.21067360839844L119.10208333333334,100.33687932128906L121.93784722222223,96.19113830566407L124.77361111111111,98.33195244140624L127.609375,99.1104931640625L130.4451388888889,98.18944497070312L133.28090277777778,99.46530988769531L136.11666666666667,100.21087485351563L138.95243055555554,99.24354133300781L141.78819444444446,100.04075434570312L144.62395833333332,99.01449140625L147.4597222222222,99.76696179199219L150.2954861111111,98.90944086914062L153.13125,100.43305825195313L155.9670138888889,100.47026455078125L158.80277777777778,99.77369868164062L161.63854166666667,97.45833903808594L164.47430555555556,98.52769819335937L167.31006944444445,99.60833591308594L170.14583333333331,98.13023898925782L172.98159722222223,100.94473776855469L175.8173611111111,98.86931337890626L178.653125,98.79571318359375L181.4888888888889,99.78921643066406L184.32465277777777,94.74794443359374L187.16041666666666,97.57562314453125L189.99618055555555,98.46203620605468L192.83194444444445,97.99965827636719L195.66770833333334,96.11194636230468L198.50347222222223,99.76190588378905L201.3392361111111,96.09161901855468L204.175,97.7027425048828L207.0107638888889,98.10119992675781L209.84652777777777,97.70123869628907L212.68229166666669,97.16745146484375L215.51805555555555,97.52977858886719L218.35381944444444,96.45083049316406L221.18958333333333,97.29892236328125L224.02534722222222,97.0943525390625L226.8611111111111,99.3747356689453L229.696875,96.55893186035156L232.5326388888889,97.57682014160156L235.3684027777778,98.11310939941406L238.20416666666668,97.60504248046875" style="fill: none;" fill="none"></path></g><g><path stroke="rgb(0, 153, 136)" stroke-width="2px" d="M28.357638888888886,30.696708984374993L31.193402777777777,45.45666811523438L34.02916666666667,35.914648242187496L36.86493055555555,67.03018520507811L39.700694444444444,66.35320341796876L42.53645833333333,80.40998510742186L45.37222222222223,77.46646127929688L48.20798611111111,80.60624077148437L51.04375,83.36209101562501L53.87951388888889,85.6804453125L56.71527777777777,77.34098833007812L59.55104166666667,81.98250219726563L62.386805555555554,89.89705979003907L65.22256944444445,88.76594077148437L68.05833333333334,93.72051906738281L70.89409722222223,90.35059636230469L73.7298611111111,89.54518154296875L76.565625,86.0847796875L79.40138888888889,90.78918559570313L82.23715277777778,90.55892138671875L85.07291666666666,96.77749401855469L87.90868055555555,94.05996064453124L90.74444444444445,88.40840163574218L93.58020833333333,94.02733491210938L96.41597222222222,93.75099711914062L99.25173611111111,96.46313752441407L102.0875,96.85613283691406L104.92326388888888,95.52021928710937L107.75902777777777,94.24774658203125L110.59479166666667,97.04009443359375L113.43055555555554,96.88499904785157L116.26631944444445,94.39243630371094L119.10208333333334,97.79215861816405L121.93784722222223,97.89046794433594L124.77361111111111,93.96886787109375L127.609375,100.31144853515625L130.4451388888889,96.97889633789062L133.28090277777778,98.72708247070312L136.11666666666667,97.01607670898437L138.95243055555554,92.31455310058594L141.78819444444446,96.29714384765624L144.62395833333332,95.79348464355468L147.4597222222222,97.35108464355469L150.2954861111111,99.67067915039063L153.13125,97.97841049804688L155.9670138888889,101.63683110351563L158.80277777777778,97.5511646484375L161.63854166666667,97.33710095214845L164.47430555555556,95.39206281738281L167.31006944444445,97.6749263671875L170.14583333333331,98.17282529296875L172.98159722222223,96.17286357421875L175.8173611111111,98.51897783203125L178.653125,97.39081457519531L181.4888888888889,97.98920075683593L184.32465277777777,96.17664470214844L187.16041666666666,95.14529992675782L189.99618055555555,97.0512087890625L192.83194444444445,94.24661440429688L195.66770833333334,99.89685109863281L198.50347222222223,94.80205561523437L201.3392361111111,95.39634521484375L204.175,98.98101437988281L207.0107638888889,98.61877368164063L209.84652777777777,91.4025580078125L212.68229166666669,98.25571625976562L215.51805555555555,96.93070964355469L218.35381944444444,96.83460849609375L221.18958333333333,96.12338049316406L224.02534722222222,95.44304106445313L226.8611111111111,99.71645888671874L229.696875,99.57906782226563L232.5326388888889,98.37864829101562L235.3684027777778,98.96137412109374L238.20416666666668,93.47411916503906" style="fill: none;" fill="none"></path></g></g></g></g></g></g><g transform="translate(74, 177)" clip-path="url(#clip_1)"><clipPath id="clip_1"><rect width="255" height="23"></rect></clipPath><g><g><line x1="0" y1="0" x2="0" y2="5" style="visibility: inherit;" fill="rgb(0, 0, 0)" stroke="rgb(204, 204, 204)" stroke-width="1px"></line><line x1="28.357638888888886" y1="0" x2="28.357638888888886" y2="5" style="visibility: inherit;" fill="rgb(0, 0, 0)" stroke="rgb(204, 204, 204)" stroke-width="1px"></line><line x1="56.71527777777777" y1="0" x2="56.71527777777777" y2="5" style="visibility: inherit;" fill="rgb(0, 0, 0)" stroke="rgb(204, 204, 204)" stroke-width="1px"></line><line x1="85.07291666666666" y1="0" x2="85.07291666666666" y2="5" style="visibility: inherit;" fill="rgb(0, 0, 0)" stroke="rgb(204, 204, 204)" stroke-width="1px"></line><line x1="113.43055555555554" y1="0" x2="113.43055555555554" y2="5" style="visibility: inherit;" fill="rgb(0, 0, 0)" stroke="rgb(204, 204, 204)" stroke-width="1px"></line><line x1="141.78819444444446" y1="0" x2="141.78819444444446" y2="5" style="visibility: inherit;" fill="rgb(0, 0, 0)" stroke="rgb(204, 204, 204)" stroke-width="1px"></line><line x1="170.14583333333331" y1="0" x2="170.14583333333331" y2="5" style="visibility: inherit;" fill="rgb(0, 0, 0)" stroke="rgb(204, 204, 204)" stroke-width="1px"></line><line x1="198.50347222222223" y1="0" x2="198.50347222222223" y2="5" style="visibility: inherit;" fill="rgb(0, 0, 0)" stroke="rgb(204, 204, 204)" stroke-width="1px"></line><line x1="226.8611111111111" y1="0" x2="226.8611111111111" y2="5" style="visibility: inherit;" fill="rgb(0, 0, 0)" stroke="rgb(204, 204, 204)" stroke-width="1px"></line><line x1="255.21875" y1="0" x2="255.21875" y2="5" style="visibility: inherit;" fill="rgb(0, 0, 0)" stroke="rgb(204, 204, 204)" stroke-width="1px"></line></g><g transform="translate(0, 8)"><text x="0" y="0" dx="0em" dy="0.95em" style="text-anchor: middle; visibility: hidden; font-family: &quot;Helvetica Neue&quot;, sans-serif; font-size: 12px; font-weight: 200;" fill="rgb(50, 49, 63)" stroke="none" stroke-width="1px">-10</text><text x="28.357638888888886" y="0" dx="0em" dy="0.95em" style="text-anchor: middle; visibility: inherit; font-family: &quot;Helvetica Neue&quot;, sans-serif; font-size: 12px; font-weight: 200;" fill="rgb(50, 49, 63)" stroke="none" stroke-width="1px">0</text><text x="56.71527777777777" y="0" dx="0em" dy="0.95em" style="text-anchor: middle; visibility: inherit; font-family: &quot;Helvetica Neue&quot;, sans-serif; font-size: 12px; font-weight: 200;" fill="rgb(50, 49, 63)" stroke="none" stroke-width="1px">10</text><text x="85.07291666666666" y="0" dx="0em" dy="0.95em" style="text-anchor: middle; visibility: inherit; font-family: &quot;Helvetica Neue&quot;, sans-serif; font-size: 12px; font-weight: 200;" fill="rgb(50, 49, 63)" stroke="none" stroke-width="1px">20</text><text x="113.43055555555554" y="0" dx="0em" dy="0.95em" style="text-anchor: middle; visibility: inherit; font-family: &quot;Helvetica Neue&quot;, sans-serif; font-size: 12px; font-weight: 200;" fill="rgb(50, 49, 63)" stroke="none" stroke-width="1px">30</text><text x="141.78819444444446" y="0" dx="0em" dy="0.95em" style="text-anchor: middle; visibility: inherit; font-family: &quot;Helvetica Neue&quot;, sans-serif; font-size: 12px; font-weight: 200;" fill="rgb(50, 49, 63)" stroke="none" stroke-width="1px">40</text><text x="170.14583333333331" y="0" dx="0em" dy="0.95em" style="text-anchor: middle; visibility: inherit; font-family: &quot;Helvetica Neue&quot;, sans-serif; font-size: 12px; font-weight: 200;" fill="rgb(50, 49, 63)" stroke="none" stroke-width="1px">50</text><text x="198.50347222222223" y="0" dx="0em" dy="0.95em" style="text-anchor: middle; visibility: inherit; font-family: &quot;Helvetica Neue&quot;, sans-serif; font-size: 12px; font-weight: 200;" fill="rgb(50, 49, 63)" stroke="none" stroke-width="1px">60</text><text x="226.8611111111111" y="0" dx="0em" dy="0.95em" style="text-anchor: middle; visibility: inherit; font-family: &quot;Helvetica Neue&quot;, sans-serif; font-size: 12px; font-weight: 200;" fill="rgb(50, 49, 63)" stroke="none" stroke-width="1px">70</text><text x="255.21875" y="0" dx="0em" dy="0.95em" style="text-anchor: middle; visibility: hidden; font-family: &quot;Helvetica Neue&quot;, sans-serif; font-size: 12px; font-weight: 200;" fill="rgb(50, 49, 63)" stroke="none" stroke-width="1px">80</text></g><line x1="0" y1="0" x2="255.21875" y2="0" fill="rgb(0, 0, 0)" stroke="rgb(204, 204, 204)" stroke-width="1px"></line></g></g></g></g></svg>