<svg viewBox="0 0 330 200" xmlns="http://www.w3.org/2000/svg"><g><g><g><g><g><line x1="31.59375" y1="177" x2="26.59375" y2="177" style="visibility: inherit;" fill="rgb(0, 0, 0)" stroke="rgb(204, 204, 204)" stroke-width="1px"></line><line x1="31.59375" y1="157.33333333333334" x2="26.59375" y2="157.33333333333334" style="visibility: inherit;" fill="rgb(0, 0, 0)" stroke="rgb(204, 204, 204)" stroke-width="1px"></line><line x1="31.59375" y1="137.66666666666669" x2="26.59375" y2="137.66666666666669" style="visibility: inherit;" fill="rgb(0, 0, 0)" stroke="rgb(204, 204, 204)" stroke-width="1px"></line><line x1="31.59375" y1="118" x2="26.59375" y2="118" style="visibility: inherit;" fill="rgb(0, 0, 0)" stroke="rgb(204, 204, 204)" stroke-width="1px"></line><line x1="31.59375" y1="98.33333333333334" x2="26.59375" y2="98.33333333333334" style="visibility: inherit;" fill="rgb(0, 0, 0)" stroke="rgb(204, 204, 204)" stroke-width="1px"></line><line x1="31.59375" y1="78.66666666666666" x2="26.59375" y2="78.66666666666666" style="visibility: inherit;" fill="rgb(0, 0, 0)" stroke="rgb(204, 204, 204)" stroke-width="1px"></line><line x1="31.59375" y1="59" x2="26.59375" y2="59" style="visibility: inherit;" fill="rgb(0, 0, 0)" stroke="rgb(204, 204, 204)" stroke-width="1px"></line><line x1="31.59375" y1="39.33333333333334" x2="26.59375" y2="39.33333333333334" style="visibility: inherit;" fill="rgb(0, 0, 0)" stroke="rgb(204, 204, 204)" stroke-width="1px"></line><line x1="31.59375" y1="19.666666666666686" x2="26.59375" y2="19.666666666666686" style="visibility: inherit;" fill="rgb(0, 0, 0)" stroke="rgb(204, 204, 204)" stroke-width="1px"></line><line x1="31.59375" y1="0" x2="26.59375" y2="0" style="visibility: inherit;" fill="rgb(0, 0, 0)" stroke="rgb(204, 204, 204)" stroke-width="1px"></line></g><g transform="translate(21.59375, 0)"><text x="0" y="177" dx="0em" dy="0.3em" style="text-anchor: end; visibility: hidden; font-family: &quot;Helvetica Neue&quot;, sans-serif; font-size: 12px; font-weight: 200;" fill="rgb(50, 49, 63)" stroke="none" stroke-width="1px">55</text><text x="0" y="157.33333333333334" dx="0em" dy="0.3em" style="text-anchor: end; visibility: inherit; font-family: &quot;Helvetica Neue&quot;, sans-serif; font-size: 12px; font-weight: 200;" fill="rgb(50, 49, 63)" stroke="none" stroke-width="1px">56</text><text x="0" y="137.66666666666669" dx="0em" dy="0.3em" style="text-anchor: end; visibility: hidden; font-family: &quot;Helvetica Neue&quot;, sans-serif; font-size: 12px; font-weight: 200;" fill="rgb(50, 49, 63)" stroke="none" stroke-width="1px">57</text><text x="0" y="118" dx="0em" dy="0.3em" style="text-anchor: end; visibility: inherit; font-family: &quot;Helvetica Neue&quot;, sans-serif; font-size: 12px; font-weight: 200;" fill="rgb(50, 49, 63)" stroke="none" stroke-width="1px">58</text><text x="0" y="98.33333333333334" dx="0em" dy="0.3em" style="text-anchor: end; visibility: hidden; font-family: &quot;Helvetica Neue&quot;, sans-serif; font-size: 12px; font-weight: 200;" fill="rgb(50, 49, 63)" stroke="none" stroke-width="1px">59</text><text x="0" y="78.66666666666666" dx="0em" dy="0.3em" style="text-anchor: end; visibility: inherit; font-family: &quot;Helvetica Neue&quot;, sans-serif; font-size: 12px; font-weight: 200;" fill="rgb(50, 49, 63)" stroke="none" stroke-width="1px">60</text><text x="0" y="59" dx="0em" dy="0.3em" style="text-anchor: end; visibility: hidden; font-family: &quot;Helvetica Neue&quot;, sans-serif; font-size: 12px; font-weight: 200;" fill="rgb(50, 49, 63)" stroke="none" stroke-width="1px">61</text><text x="0" y="39.33333333333334" dx="0em" dy="0.3em" style="text-anchor: end; visibility: inherit; font-family: &quot;Helvetica Neue&quot;, sans-serif; font-size: 12px; font-weight: 200;" fill="rgb(50, 49, 63)" stroke="none" stroke-width="1px">62</text><text x="0" y="19.666666666666686" dx="0em" dy="0.3em" style="text-anchor: end; visibility: hidden; font-family: &quot;Helvetica Neue&quot;, sans-serif; font-size: 12px; font-weight: 200;" fill="rgb(50, 49, 63)" stroke="none" stroke-width="1px">63</text><text x="0" y="0" dx="0em" dy="0.3em" style="text-anchor: end; visibility: hidden; font-family: &quot;Helvetica Neue&quot;, sans-serif; font-size: 12px; font-weight: 200;" fill="rgb(50, 49, 63)" stroke="none" stroke-width="1px">64</text></g><line x1="31.59375" y1="0" x2="31.59375" y2="177" fill="rgb(0, 0, 0)" stroke="rgb(204, 204, 204)" stroke-width="1px"></line></g></g><g transform="translate(31, 0)" clip-path="url(#clip_0)"><clipPath id="clip_0"><rect width="298" height="177"></rect></clipPath><g><g><g><line x1="0" y1="0" x2="0" y2="177" fill="rgb(0, 0, 0)" stroke="rgb(60, 60, 60)" stroke-width="1px" opacity="0.25"></line><line x1="33.15625" y1="0" x2="33.15625" y2="177" fill="rgb(0, 0, 0)" stroke="rgb(60, 60, 60)" stroke-width="1px" opacity="0.25"></line><line x1="66.3125" y1="0" x2="66.3125" y2="177" fill="rgb(0, 0, 0)" stroke="rgb(60, 60, 60)" stroke-width="1px" opacity="0.25"></line><line x1="99.46875" y1="0" x2="99.46875" y2="177" fill="rgb(0, 0, 0)" stroke="rgb(60, 60, 60)" stroke-width="1px" opacity="0.25"></line><line x1="132.625" y1="0" x2="132.625" y2="177" fill="rgb(0, 0, 0)" stroke="rgb(60, 60, 60)" stroke-width="1px" opacity="0.25"></line><line x1="165.78125" y1="0" x2="165.78125" y2="177" fill="rgb(0, 0, 0)" stroke="rgb(60, 60, 60)" stroke-width="1px" opacity="0.25"></line><line x1="198.9375" y1="0" x2="198.9375" y2="177" fill="rgb(0, 0, 0)" stroke="rgb(60, 60, 60)" stroke-width="1px" opacity="0.25"></line><line x1="232.09375" y1="0" x2="232.09375" y2="177" fill="rgb(0, 0, 0)" stroke="rgb(60, 60, 60)" stroke-width="1px" opacity="0.25"></line><line x1="265.25" y1="0" x2="265.25" y2="177" fill="rgb(0, 0, 0)" stroke="rgb(60, 60, 60)" stroke-width="1px" opacity="0.25"></line><line x1="298.40625" y1="0" x2="298.40625" y2="177" fill="rgb(0, 0, 0)" stroke="rgb(60, 60, 60)" stroke-width="1px" opacity="0.25"></line></g><g><line x1="0" y1="177" x2="298.40625" y2="177" fill="rgb(0, 0, 0)" stroke="rgb(60, 60, 60)" stroke-width="1px" opacity="0.25"></line><line x1="0" y1="157.33333333333334" x2="298.40625" y2="157.33333333333334" fill="rgb(0, 0, 0)" stroke="rgb(60, 60, 60)" stroke-width="1px" opacity="0.25"></line><line x1="0" y1="137.66666666666669" x2="298.40625" y2="137.66666666666669" fill="rgb(0, 0, 0)" stroke="rgb(60, 60, 60)" stroke-width="1px" opacity="0.25"></line><line x1="0" y1="118" x2="298.40625" y2="118" fill="rgb(0, 0, 0)" stroke="rgb(60, 60, 60)" stroke-width="1px" opacity="0.25"></line><line x1="0" y1="98.33333333333334" x2="298.40625" y2="98.33333333333334" fill="rgb(0, 0, 0)" stroke="rgb(60, 60, 60)" stroke-width="1px" opacity="0.25"></line><line x1="0" y1="78.66666666666666" x2="298.40625" y2="78.66666666666666" fill="rgb(0, 0, 0)" stroke="rgb(60, 60, 60)" stroke-width="1px" opacity="0.25"></line><line x1="0" y1="59" x2="298.40625" y2="59" fill="rgb(0, 0, 0)" stroke="rgb(60, 60, 60)" stroke-width="1px" opacity="0.25"></line><line x1="0" y1="39.33333333333334" x2="298.40625" y2="39.33333333333334" fill="rgb(0, 0, 0)" stroke="rgb(60, 60, 60)" stroke-width="1px" opacity="0.25"></line><line x1="0" y1="19.666666666666686" x2="298.40625" y2="19.666666666666686" fill="rgb(0, 0, 0)" stroke="rgb(60, 60, 60)" stroke-width="1px" opacity="0.25"></line><line x1="0" y1="0" x2="298.40625" y2="0" fill="rgb(0, 0, 0)" stroke="rgb(60, 60, 60)" stroke-width="1px" opacity="0.25"></line></g></g></g><g><g><line x1="0" y1="1258.6666666666665" x2="298.40625" y2="1258.6666666666665" fill="rgb(0, 0, 0)" stroke="rgb(153, 153, 153)" stroke-width="1.5px"></line></g></g><g><g><line x1="33.15625" y1="0" x2="33.15625" y2="177" fill="rgb(0, 0, 0)" stroke="rgb(153, 153, 153)" stroke-width="1.5px"></line></g></g><g><g><g><g><g><path stroke="rgb(238, 51, 119)" stroke-width="2px" d="M33.15625,131.54754130045558L36.471875,116.46498933469502L39.7875,115.26582611125909L43.103125,115.62364618663304L46.41875,110.1780394388931L49.734375,103.74873453236368L53.050000000000004,100.29675081464929L56.365625,95.92083240721053L59.681250000000006,93.25870777778172L62.996875,89.51255625863212L66.3125,86.3690611523578L69.628125,84.49494025764373L72.94375,81.74236445633171L76.25937499999999,79.42275179492128L79.575,76.95476149823L82.890625,75.24806884944316L86.20625,72.93560580916339L89.521875,71.11096126832648L92.8375,69.77194857442156L96.153125,67.85810404599968L99.46875,65.98258598799845L102.784375,64.85163689955841L106.10000000000001,63.95929752549296L109.41562499999999,62.72612876257469L112.73125,61.451818013597176L116.046875,60.32884801189314L119.36250000000001,59.21291071147104L122.678125,58.007093521709436L125.99375,57.41390292806571L129.30937500000002,56.26016963043787L132.625,55.30054417616171L135.940625,54.325103007893844L139.25625,53.344734753904206L142.571875,52.36232341249709L145.8875,51.692563709754026L149.203125,50.65540932587277L152.51874999999998,49.89541352471632L155.83437500000002,49.110901981781666L159.15,48.36828117731139L162.465625,47.71513895023577L165.78125,47.04988761780493L169.09687499999998,46.48425427817125L172.4125,45.84035439167033L175.728125,45.37042195779742L179.04375,44.90336646863878L182.35937500000003,44.30573523652211L185.675,43.697026724524136L188.990625,43.350665883021406L192.30625,42.89786008254302L195.621875,42.41530711892153L198.9375,42.01373313089371L202.253125,41.463075547096395L205.56875,41.055671208419426L208.88437499999998,40.84531254533644L212.20000000000002,40.45019607407096L215.515625,40.246859302009L218.83124999999998,39.90069646455211L222.146875,39.63974901559328L225.4625,39.39279593034587L228.77812500000002,39.168937200942366L232.09375,38.89773316427505L235.40937499999998,38.622968604655L238.72500000000002,38.387650005151585L242.040625,38.20895818808697L245.35625,37.93480102750803L248.671875,37.61802040235895L251.9875,37.52550368325507L255.303125,37.33771701063813L258.61875000000003,37.20293564263608L261.934375,37.10065833747154L265.25,37.00355925661157L268.565625,36.787108587859876L271.88125,36.542940314748165L275.19687500000003,36.335580107962926L278.5125,36.199439492527546" style="fill: none;" fill="none"></path></g><g><path stroke="rgb(51, 187, 238)" stroke-width="2px" d="M33.15625,128.0465469360353L36.471875,130.10449751657524L39.7875,119.69289982066228L43.103125,111.34388272937032L46.41875,106.75979416434771L49.734375,103.68780069564939L53.050000000000004,99.79515786587201L56.365625,94.86969491794494L59.681250000000006,91.08312909667642L62.996875,88.34693836035999L66.3125,85.44838326543233L69.628125,82.92533945041892L72.94375,81.93643378085979L76.25937499999999,79.43231585589847L79.575,76.8714172578099L82.890625,75.49628443454942L86.20625,73.40863729473313L89.521875,72.46330456292407L92.8375,70.76800910137683L96.153125,68.86513677587986L99.46875,67.51597169000911L102.784375,66.53329012301253L106.10000000000001,65.2798320160414L109.41562499999999,64.28236325864549L112.73125,64.11055663603028L116.046875,62.848523615172994L119.36250000000001,61.46944418200259L122.678125,60.528984433959096L125.99375,59.45964368177634L129.30937500000002,58.38488313340173L132.625,57.412651791843885L135.940625,56.48311548800038L139.25625,55.79224609449997L142.571875,54.75648584704693L145.8875,53.70039578547248L149.203125,53.13680963412334L152.51874999999998,52.25104942577792L155.83437500000002,51.32659150581665L159.15,50.64873746263174L162.465625,50.01002501576659L165.78125,49.35220365132126L169.09687499999998,48.9501808010578L172.4125,48.445223632435045L175.728125,47.899377947658735L179.04375,47.629716746267064L182.35937500000003,47.024377104375304L185.675,46.47749649362484L188.990625,45.9184949859505L192.30625,45.484356854058944L195.621875,45.13131666013149L198.9375,44.571005140150845L202.253125,44.13734740587802L205.56875,43.66577537696793L208.88437499999998,43.44559364083793L212.20000000000002,42.9615657383616L215.515625,42.846044196566396L218.83124999999998,42.677299166016155L222.146875,42.46965084372721L225.4625,42.21473328788278L228.77812500000002,41.94204077974459L232.09375,41.67912169960354L235.40937499999998,41.58987941881222L238.72500000000002,41.252841984589196L242.040625,40.95740589261527L245.35625,40.745289304955065L248.671875,40.37901394927525L251.9875,40.17688159797038L255.303125,39.917000397750684L258.61875000000003,39.69947202895105L261.934375,39.489594682556685L265.25,39.305244248371906L268.565625,39.071387253812475L271.88125,38.82577445976165L275.19687500000003,38.682265059691474L278.5125,38.56921754832425" style="fill: none;" fill="none"></path></g><g><path stroke="rgb(204, 51, 17)" stroke-width="2px" d="M33.15625,128.78529230753594L36.471875,116.76976077720417L39.7875,111.88238898657346L43.103125,105.32203806605452L46.41875,101.8135261522728L49.734375,96.65342026883806L53.050000000000004,94.30433212945721L56.365625,91.36840539486549L59.681250000000006,87.50846723070875L62.996875,85.09234812079102L66.3125,81.74463818899824L69.628125,79.95354980080424L72.94375,76.87133835735885L76.25937499999999,74.76680951471067L79.575,72.40386063608935L82.890625,70.41837911602384L86.20625,68.67837175017665L89.521875,67.04547944956055L92.8375,65.74355795372921L96.153125,64.34897315922267L99.46875,62.72388223701053L102.784375,61.52596770267847L106.10000000000001,60.256491292048636L109.41562499999999,59.03538167076735L112.73125,57.91547007669817L116.046875,56.81390582372492L119.36250000000001,55.333386137483785L122.678125,54.4113078641404L125.99375,54.13754886739183L129.30937500000002,53.167442515727174L132.625,52.26372179829086L135.940625,51.418886307865165L139.25625,50.52702372978146L142.571875,49.9955014584138L145.8875,49.40466254087525L149.203125,48.68330842170565L152.51874999999998,48.08676172213734L155.83437500000002,47.45366349355979L159.15,46.783626163829666L162.465625,46.20575472246L165.78125,45.611963281770954L169.09687499999998,45.125523549880455L172.4125,44.581573731906445L175.728125,44.18511426121219L179.04375,43.69488769655146L182.35937500000003,43.21033883130596L185.675,42.79705424000562L188.990625,42.5562239644095L192.30625,42.2536285371437L195.621875,41.89212023328906L198.9375,41.64574648839974L202.253125,41.18534615103394L205.56875,40.89704173489744L208.88437499999998,40.64134801924325L212.20000000000002,40.31987799969551L215.515625,40.319036078558184L218.83124999999998,40.16225484403114L222.146875,39.96577311453359L225.4625,39.81803494358343L228.77812500000002,39.784747347264556L232.09375,39.51745824043215L235.40937499999998,39.454567575416206L238.72500000000002,39.32536958776441L242.040625,39.134314037960166L245.35625,39.00056021486748L248.671875,38.845677430508914L251.9875,38.74892302333575L255.303125,38.687176126519915L258.61875000000003,38.58397425757789L261.934375,38.48756857822849L265.25,38.30753227158442L268.565625,38.26972638565957L271.88125,38.16567550520071L275.19687500000003,38.056206435012314L278.5125,37.977637962665796" style="fill: none;" fill="none"></path></g><g><path stroke="rgb(0, 153, 136)" stroke-width="2px" d="M33.15625,143.25860977172852L36.471875,132.2793672711812L39.7875,132.9240891854834L43.103125,123.32500533355335L46.41875,117.72016671832343L49.734375,109.90592234281141L53.050000000000004,104.91483894736467L56.365625,100.42119311171567L59.681250000000006,96.27377232164577L62.996875,92.53773540343771L66.3125,90.79497142568397L69.628125,88.68861895052558L72.94375,85.87523068159743L76.25937499999999,83.44261394349016L79.575,80.73253176525121L82.890625,78.65110030438015L86.20625,76.84936816948895L89.521875,75.69441895854014L92.8375,74.29553928990714L96.153125,72.8894580286002L99.46875,70.91424886373102L102.784375,69.38764739246223L106.10000000000001,68.67746762569104L109.41562499999999,67.4450928755899L112.73125,66.27520983790956L116.046875,65.00229838079812L119.36250000000001,63.82299228863626L122.678125,62.83450502029089L125.99375,62.07820835693498L129.30937500000002,61.11049743128537L132.625,60.143078895901255L135.940625,59.39267276418899L139.25625,58.50837851766681L142.571875,57.624234640973256L145.8875,57.18773722685036L149.203125,56.114703177739216L152.51874999999998,55.44778299781581L155.83437500000002,54.69284478807728L159.15,54.094230571366765L162.465625,53.82845812901277L165.78125,53.37555836264491L169.09687499999998,52.958862395673876L172.4125,52.428310743705566L175.728125,51.776137250659175L179.04375,51.29566764532146L182.35937500000003,50.494937628873345L185.675,50.078905000256725L188.990625,49.693118087064065L192.30625,49.372102485179965L195.621875,49.00652643781348L198.9375,48.566100903714045L202.253125,48.259251774297894L205.56875,47.8506090892958L208.88437499999998,47.5549575631903L212.20000000000002,47.163344036476616L215.515625,46.987832315434986L218.83124999999998,46.84753562806449L222.146875,46.57985945447322L225.4625,46.50625784590892L228.77812500000002,46.093118503334324L232.09375,45.99555234611327L235.40937499999998,45.89194040488175L238.72500000000002,45.54027942776452L242.040625,45.25786813067381L245.35625,45.314512336462286L248.671875,45.020450891097425L251.9875,44.83281218923426L255.303125,44.657714686646045L258.61875000000003,44.53314675571792L261.934375,44.45267098147306L265.25,44.138576499464676L268.565625,43.84940023164728L271.88125,43.62484006466616L275.19687500000003,43.37719438051769L278.5125,43.399025904350964" style="fill: none;" fill="none"></path></g></g></g></g><g opacity="0.2"><g><g><g><path stroke="rgb(238, 51, 119)" stroke-width="2px" d="M33.15625,131.54754130045572L36.471875,101.5332628885905L39.7875,112.90335464477539L43.103125,116.67577997843424L46.41875,88.9347546895345L49.734375,72.55384318033855L53.050000000000004,80.2978032430013L56.365625,66.49045944213867L59.681250000000006,72.89804585774739L62.996875,57.438784281412765L66.3125,56.612187703450516L69.628125,65.07621256510416L72.94375,50.781673431396484L76.25937499999999,51.296476999918625L79.575,44.88528951009113L82.890625,51.60316848754883L86.20625,38.92926279703775L89.521875,42.74024963378906L92.8375,47.83471934000653L96.153125,34.92216746012372L99.46875,32.17222213745117L102.784375,43.54801559448242L106.10000000000001,46.43502680460614L109.41562499999999,37.52979532877606L112.73125,34.413665771484375L116.046875,35.628353118896484L119.36250000000001,33.80778503417969L122.678125,29.636540730794252L125.99375,43.00957997639972L129.30937500000002,27.38226826985678L132.625,30.571319580078125L135.940625,28.473993937174498L139.25625,26.652300516764342L142.571875,24.90915552775064L145.8875,32.50044504801431L149.203125,20.20592753092447L152.51874999999998,27.053670247395843L155.83437500000002,24.991455078125L159.15,25.029866536458343L162.465625,26.74742889404297L165.78125,25.248406728108705L169.09687499999998,27.572825113932282L172.4125,23.889976501464844L175.728125,29.045514424641937L179.04375,28.378265380859375L182.35937500000003,22.780470530192048L185.675,21.389405568440765L188.990625,30.441455841064453L192.30625,25.74182891845703L195.621875,23.837310791015625L198.9375,26.310423533121735L202.253125,19.60012181599936L205.56875,24.638774871826172L208.88437499999998,32.24514389038086L212.20000000000002,24.066879272460938L215.515625,31.69860585530597L218.83124999999998,25.150877634684235L222.146875,28.373764038085938L225.4625,28.593129475911468L228.77812500000002,29.255502065022796L232.09375,26.739251454671205L235.40937499999998,26.156027475992857L238.72500000000002,27.584303538004548L242.040625,29.910447438557952L245.35625,25.05875015258789L248.671875,22.575284322102846L251.9875,33.084569295247405L255.303125,28.227920532226562L258.61875000000003,30.596452077229827L261.934375,32.03628158569336L265.25,32.14753977457681L268.565625,25.856163024902344L271.88125,24.093812306721986L275.19687500000003,25.663580576578767L278.5125,29.128114064534486" style="fill: none;" fill="none"></path></g><g><path stroke="rgb(51, 187, 238)" stroke-width="2px" d="M33.15625,128.04654693603516L36.471875,132.1418685913086L39.7875,99.18101119995117L43.103125,86.79444122314453L46.41875,88.87728754679362L49.734375,88.78253428141275L53.050000000000004,77.24326705932617L56.365625,61.743343353271484L59.681250000000006,62.122431437174484L62.996875,64.92024103800455L66.3125,58.010154724121094L69.628125,56.78278859456381L72.94375,70.81332397460938L76.25937499999999,49.068837483723954L79.575,43.59467951456705L82.890625,56.444887797037765L86.20625,42.708365122477204L89.521875,57.76468149820964L92.8375,42.99375025431314L96.153125,36.11802419026694L99.46875,43.19428507486978L102.784375,48.02257537841797L106.10000000000001,40.663705190022796L109.41562499999999,43.90189615885416L112.73125,60.465187072753906L116.046875,35.089242299397796L119.36250000000001,30.07369613647461L122.678125,38.40178044637045L125.99375,33.49306615193686L129.30937500000002,31.48366673787436L132.625,32.358577728271484L135.940625,31.848575592041016L139.25625,36.98198191324869L142.571875,25.8125L145.8875,23.437891642252595L149.203125,36.590665181477874L152.51874999999998,25.629445393880218L155.83437500000002,22.904557545979827L159.15,29.345753987630218L162.465625,29.50555165608722L165.78125,27.79421615600586L169.09687499999998,35.508917490641295L172.4125,31.231366475423158L175.728125,28.937332153320312L179.04375,38.088712056477846L182.35937500000003,25.221473693847656L185.675,26.435710906982422L188.990625,25.08395767211914L192.30625,29.035611470540346L195.621875,31.539483388264983L198.9375,22.660359700520814L202.253125,26.91968027750653L205.56875,24.66315714518231L208.88437499999998,34.443824768066406L212.20000000000002,22.891578674316406L215.515625,37.989532470703125L218.83124999999998,35.48716100056964L222.146875,33.50476964314777L225.4625,31.066767374674498L228.77812500000002,29.866034189860017L232.09375,29.892066955566406L235.40937499999998,37.54067357381186L238.72500000000002,25.779640197753906L242.040625,27.237250010172517L245.35625,30.783032735188783L248.671875,22.985956827799498L251.9875,30.474240620931L255.303125,27.309796651204408L258.61875000000003,29.037036895751953L261.934375,29.097279866536468L265.25,30.085699717203795L268.565625,27.261407216389983L271.88125,26.302996317545563L275.19687500000003,31.29641087849936L278.5125,32.69737879435223" style="fill: none;" fill="none"></path></g><g><path stroke="rgb(204, 51, 17)" stroke-width="2px" d="M33.15625,128.7852923075358L36.471875,104.87438456217448L39.7875,102.25377782185872L43.103125,86.03198877970378L46.41875,88.12683868408203L49.734375,71.61666361490886L53.050000000000004,80.6949717203776L56.365625,71.622740427653L59.681250000000006,57.986597696940095L62.996875,64.40603764851888L66.3125,50.054631551106766L69.628125,61.395164489746094L72.94375,42.20293935139975L76.25937499999999,49.24851608276367L79.575,41.69931411743164L82.890625,42.911075592041016L86.20625,43.09037907918295L89.521875,41.656251271565765L92.8375,44.41399892171222L96.153125,40.34913635253906L99.46875,33.42802174886069L102.784375,38.96092224121094L106.10000000000001,35.32578786214191L109.41562499999999,34.085442860921205L112.73125,34.15333811442056L116.046875,32.58424504597983L119.36250000000001,21.628276824951172L122.678125,32.71658452351889L125.99375,47.48991648356119L129.30937500000002,28.885716756184877L132.625,28.975143432617188L135.940625,29.02908452351889L139.25625,26.244328816731752L142.571875,35.14228312174481L145.8875,32.474037170410156L149.203125,27.50530497233072L152.51874999999998,30.157496134440095L155.83437500000002,27.989349365234375L159.15,25.726299285888672L162.465625,27.654449462890625L165.78125,26.15235137939453L169.09687499999998,28.861859639485687L172.4125,26.038467407226562L175.728125,30.412572224934905L179.04375,26.349960327148438L182.35937500000003,25.758033752441406L185.675,27.65122350056967L188.990625,33.58024215698242L192.30625,30.788809458414704L195.621875,27.97426986694336L198.9375,32.011449178059905L202.253125,22.90590794881186L205.56875,29.279434204101562L208.88437499999998,30.187730153401702L212.20000000000002,26.990276336669922L215.515625,40.28364181518555L218.83124999999998,33.48188781738281L222.146875,31.482991536458343L225.4625,33.357200622558594L228.77812500000002,38.31062825520834L232.09375,27.534488677978516L235.40937499999998,36.60101826985678L238.72500000000002,33.39396158854166L242.040625,30.261627197265625L245.35625,32.718685150146484L248.671875,31.49086888631186L251.9875,34.10457356770834L255.303125,35.69174702962238L258.61875000000003,33.52540079752603L261.934375,33.713932037353516L265.25,29.303741455078125L268.565625,36.360496520996094L271.88125,32.86055246988931L275.19687500000003,32.422271728515625L278.5125,33.89668655395508" style="fill: none;" fill="none"></path></g><g><path stroke="rgb(0, 153, 136)" stroke-width="2px" d="M33.15625,143.25860977172852L36.471875,121.40991719563803L39.7875,134.19425582885742L43.103125,95.09986877441406L46.41875,95.85571924845378L49.734375,71.99132537841797L53.050000000000004,75.99917093912761L56.365625,70.19904073079428L59.681250000000006,64.55315653483073L62.996875,60.55056254069011L66.3125,74.29766337076823L69.628125,66.86362075805664L72.94375,54.23052724202475L76.25937499999999,53.94611740112305L79.575,45.51727803548175L82.890625,49.814484914143875L86.20625,50.35367075602214L89.521875,57.736548105875656L92.8375,51.3775011698405L96.153125,48.691775004069L99.46875,35.306732177734375L102.784375,40.63114547729492L106.10000000000001,54.73055140177409L109.41562499999999,42.26498285929364L112.73125,41.45279057820639L116.046875,37.00373840332031L119.36250000000001,36.97522989908853L122.678125,39.577306111653655L125.99375,43.71321487426758L129.30937500000002,36.888729095458984L132.625,35.2130292256673L135.940625,39.50543467203778L139.25625,34.43174616495767L142.571875,32.91711934407553L145.8875,44.67980321248373L149.203125,24.611841837565123L152.51874999999998,35.403436024983705L155.83437500000002,31.482616424560547L159.15,35.281524658203125L162.465625,45.296412150065095L165.78125,38.53321965535483L169.09687499999998,39.02701695760092L172.4125,34.341944376627595L175.728125,29.120386759440095L179.04375,34.295955657958984L182.35937500000003,21.654534657796233L185.675,34.83236567179364L188.990625,35.314459482828795L192.30625,37.20937474568686L195.621875,34.93207041422525L198.9375,31.343524932861328L202.253125,36.07631174723306L205.56875,31.383811950683594L208.88437499999998,35.46773020426434L212.20000000000002,30.925275166829437L215.515625,39.60934066772461L218.83124999999998,40.869566599527985L222.146875,35.023372650146484L225.4625,43.287537892659515L228.77812500000002,27.79751714070639L232.09375,41.62151590983075L235.40937499999998,41.19073740641278L238.72500000000002,29.395718892415374L242.040625,32.14258829752603L245.35625,47.97486114501953L248.671875,31.056564331054688L251.9875,35.82588704427084L255.303125,36.163487752278655L258.61875000000003,38.42728805541992L261.934375,40.46782175699869L265.25,28.430405934651702L268.565625,29.245749155680357L271.88125,32.175448099772154L275.19687500000003,30.63186264038086L278.5125,44.53298441569012" style="fill: none;" fill="none"></path></g></g></g></g></g></g><g transform="translate(31, 177)" clip-path="url(#clip_1)"><clipPath id="clip_1"><rect width="298" height="23"></rect></clipPath><g><g><line x1="0" y1="0" x2="0" y2="5" style="visibility: inherit;" fill="rgb(0, 0, 0)" stroke="rgb(204, 204, 204)" stroke-width="1px"></line><line x1="33.15625" y1="0" x2="33.15625" y2="5" style="visibility: inherit;" fill="rgb(0, 0, 0)" stroke="rgb(204, 204, 204)" stroke-width="1px"></line><line x1="66.3125" y1="0" x2="66.3125" y2="5" style="visibility: inherit;" fill="rgb(0, 0, 0)" stroke="rgb(204, 204, 204)" stroke-width="1px"></line><line x1="99.46875" y1="0" x2="99.46875" y2="5" style="visibility: inherit;" fill="rgb(0, 0, 0)" stroke="rgb(204, 204, 204)" stroke-width="1px"></line><line x1="132.625" y1="0" x2="132.625" y2="5" style="visibility: inherit;" fill="rgb(0, 0, 0)" stroke="rgb(204, 204, 204)" stroke-width="1px"></line><line x1="165.78125" y1="0" x2="165.78125" y2="5" style="visibility: inherit;" fill="rgb(0, 0, 0)" stroke="rgb(204, 204, 204)" stroke-width="1px"></line><line x1="198.9375" y1="0" x2="198.9375" y2="5" style="visibility: inherit;" fill="rgb(0, 0, 0)" stroke="rgb(204, 204, 204)" stroke-width="1px"></line><line x1="232.09375" y1="0" x2="232.09375" y2="5" style="visibility: inherit;" fill="rgb(0, 0, 0)" stroke="rgb(204, 204, 204)" stroke-width="1px"></line><line x1="265.25" y1="0" x2="265.25" y2="5" style="visibility: inherit;" fill="rgb(0, 0, 0)" stroke="rgb(204, 204, 204)" stroke-width="1px"></line><line x1="298.40625" y1="0" x2="298.40625" y2="5" style="visibility: inherit;" fill="rgb(0, 0, 0)" stroke="rgb(204, 204, 204)" stroke-width="1px"></line></g><g transform="translate(0, 8)"><text x="0" y="0" dx="0em" dy="0.95em" style="text-anchor: middle; visibility: hidden; font-family: &quot;Helvetica Neue&quot;, sans-serif; font-size: 12px; font-weight: 200;" fill="rgb(50, 49, 63)" stroke="none" stroke-width="1px">-10</text><text x="33.15625" y="0" dx="0em" dy="0.95em" style="text-anchor: middle; visibility: inherit; font-family: &quot;Helvetica Neue&quot;, sans-serif; font-size: 12px; font-weight: 200;" fill="rgb(50, 49, 63)" stroke="none" stroke-width="1px">0</text><text x="66.3125" y="0" dx="0em" dy="0.95em" style="text-anchor: middle; visibility: inherit; font-family: &quot;Helvetica Neue&quot;, sans-serif; font-size: 12px; font-weight: 200;" fill="rgb(50, 49, 63)" stroke="none" stroke-width="1px">10</text><text x="99.46875" y="0" dx="0em" dy="0.95em" style="text-anchor: middle; visibility: inherit; font-family: &quot;Helvetica Neue&quot;, sans-serif; font-size: 12px; font-weight: 200;" fill="rgb(50, 49, 63)" stroke="none" stroke-width="1px">20</text><text x="132.625" y="0" dx="0em" dy="0.95em" style="text-anchor: middle; visibility: inherit; font-family: &quot;Helvetica Neue&quot;, sans-serif; font-size: 12px; font-weight: 200;" fill="rgb(50, 49, 63)" stroke="none" stroke-width="1px">30</text><text x="165.78125" y="0" dx="0em" dy="0.95em" style="text-anchor: middle; visibility: inherit; font-family: &quot;Helvetica Neue&quot;, sans-serif; font-size: 12px; font-weight: 200;" fill="rgb(50, 49, 63)" stroke="none" stroke-width="1px">40</text><text x="198.9375" y="0" dx="0em" dy="0.95em" style="text-anchor: middle; visibility: inherit; font-family: &quot;Helvetica Neue&quot;, sans-serif; font-size: 12px; font-weight: 200;" fill="rgb(50, 49, 63)" stroke="none" stroke-width="1px">50</text><text x="232.09375" y="0" dx="0em" dy="0.95em" style="text-anchor: middle; visibility: inherit; font-family: &quot;Helvetica Neue&quot;, sans-serif; font-size: 12px; font-weight: 200;" fill="rgb(50, 49, 63)" stroke="none" stroke-width="1px">60</text><text x="265.25" y="0" dx="0em" dy="0.95em" style="text-anchor: middle; visibility: inherit; font-family: &quot;Helvetica Neue&quot;, sans-serif; font-size: 12px; font-weight: 200;" fill="rgb(50, 49, 63)" stroke="none" stroke-width="1px">70</text><text x="298.40625" y="0" dx="0em" dy="0.95em" style="text-anchor: middle; visibility: hidden; font-family: &quot;Helvetica Neue&quot;, sans-serif; font-size: 12px; font-weight: 200;" fill="rgb(50, 49, 63)" stroke="none" stroke-width="1px">80</text></g><line x1="0" y1="0" x2="298.40625" y2="0" fill="rgb(0, 0, 0)" stroke="rgb(204, 204, 204)" stroke-width="1px"></line></g></g></g></g></svg>