<svg viewBox="0 0 1496 400" xmlns="http://www.w3.org/2000/svg"><g><g><g><g><g><line x1="63.984375" y1="377" x2="58.984375" y2="377" style="visibility: inherit;" fill="rgb(0, 0, 0)" stroke="rgb(204, 204, 204)" stroke-width="1px"></line><line x1="63.984375" y1="339.3" x2="58.984375" y2="339.3" style="visibility: inherit;" fill="rgb(0, 0, 0)" stroke="rgb(204, 204, 204)" stroke-width="1px"></line><line x1="63.984375" y1="301.6" x2="58.984375" y2="301.6" style="visibility: inherit;" fill="rgb(0, 0, 0)" stroke="rgb(204, 204, 204)" stroke-width="1px"></line><line x1="63.984375" y1="263.9" x2="58.984375" y2="263.9" style="visibility: inherit;" fill="rgb(0, 0, 0)" stroke="rgb(204, 204, 204)" stroke-width="1px"></line><line x1="63.984375" y1="226.2" x2="58.984375" y2="226.2" style="visibility: inherit;" fill="rgb(0, 0, 0)" stroke="rgb(204, 204, 204)" stroke-width="1px"></line><line x1="63.984375" y1="188.5" x2="58.984375" y2="188.5" style="visibility: inherit;" fill="rgb(0, 0, 0)" stroke="rgb(204, 204, 204)" stroke-width="1px"></line><line x1="63.984375" y1="150.8" x2="58.984375" y2="150.8" style="visibility: inherit;" fill="rgb(0, 0, 0)" stroke="rgb(204, 204, 204)" stroke-width="1px"></line><line x1="63.984375" y1="113.10000000000002" x2="58.984375" y2="113.10000000000002" style="visibility: inherit;" fill="rgb(0, 0, 0)" stroke="rgb(204, 204, 204)" stroke-width="1px"></line><line x1="63.984375" y1="75.39999999999998" x2="58.984375" y2="75.39999999999998" style="visibility: inherit;" fill="rgb(0, 0, 0)" stroke="rgb(204, 204, 204)" stroke-width="1px"></line><line x1="63.984375" y1="37.69999999999999" x2="58.984375" y2="37.69999999999999" style="visibility: inherit;" fill="rgb(0, 0, 0)" stroke="rgb(204, 204, 204)" stroke-width="1px"></line><line x1="63.984375" y1="0" x2="58.984375" y2="0" style="visibility: inherit;" fill="rgb(0, 0, 0)" stroke="rgb(204, 204, 204)" stroke-width="1px"></line></g><g transform="translate(53.984375, 0)"><text x="0" y="377" dx="0em" dy="0.3em" style="text-anchor: end; visibility: hidden; font-family: &quot;Helvetica Neue&quot;, sans-serif; font-size: 12px; font-weight: 200;" fill="rgb(50, 49, 63)" stroke="none" stroke-width="1px">0.98</text><text x="0" y="339.3" dx="0em" dy="0.3em" style="text-anchor: end; visibility: inherit; font-family: &quot;Helvetica Neue&quot;, sans-serif; font-size: 12px; font-weight: 200;" fill="rgb(50, 49, 63)" stroke="none" stroke-width="1px">0.982</text><text x="0" y="301.6" dx="0em" dy="0.3em" style="text-anchor: end; visibility: inherit; font-family: &quot;Helvetica Neue&quot;, sans-serif; font-size: 12px; font-weight: 200;" fill="rgb(50, 49, 63)" stroke="none" stroke-width="1px">0.984</text><text x="0" y="263.9" dx="0em" dy="0.3em" style="text-anchor: end; visibility: inherit; font-family: &quot;Helvetica Neue&quot;, sans-serif; font-size: 12px; font-weight: 200;" fill="rgb(50, 49, 63)" stroke="none" stroke-width="1px">0.986</text><text x="0" y="226.2" dx="0em" dy="0.3em" style="text-anchor: end; visibility: inherit; font-family: &quot;Helvetica Neue&quot;, sans-serif; font-size: 12px; font-weight: 200;" fill="rgb(50, 49, 63)" stroke="none" stroke-width="1px">0.988</text><text x="0" y="188.5" dx="0em" dy="0.3em" style="text-anchor: end; visibility: inherit; font-family: &quot;Helvetica Neue&quot;, sans-serif; font-size: 12px; font-weight: 200;" fill="rgb(50, 49, 63)" stroke="none" stroke-width="1px">0.99</text><text x="0" y="150.8" dx="0em" dy="0.3em" style="text-anchor: end; visibility: inherit; font-family: &quot;Helvetica Neue&quot;, sans-serif; font-size: 12px; font-weight: 200;" fill="rgb(50, 49, 63)" stroke="none" stroke-width="1px">0.992</text><text x="0" y="113.10000000000002" dx="0em" dy="0.3em" style="text-anchor: end; visibility: inherit; font-family: &quot;Helvetica Neue&quot;, sans-serif; font-size: 12px; font-weight: 200;" fill="rgb(50, 49, 63)" stroke="none" stroke-width="1px">0.994</text><text x="0" y="75.39999999999998" dx="0em" dy="0.3em" style="text-anchor: end; visibility: inherit; font-family: &quot;Helvetica Neue&quot;, sans-serif; font-size: 12px; font-weight: 200;" fill="rgb(50, 49, 63)" stroke="none" stroke-width="1px">0.996</text><text x="0" y="37.69999999999999" dx="0em" dy="0.3em" style="text-anchor: end; visibility: inherit; font-family: &quot;Helvetica Neue&quot;, sans-serif; font-size: 12px; font-weight: 200;" fill="rgb(50, 49, 63)" stroke="none" stroke-width="1px">0.998</text><text x="0" y="0" dx="0em" dy="0.3em" style="text-anchor: end; visibility: hidden; font-family: &quot;Helvetica Neue&quot;, sans-serif; font-size: 12px; font-weight: 200;" fill="rgb(50, 49, 63)" stroke="none" stroke-width="1px">1</text></g><line x1="63.984375" y1="0" x2="63.984375" y2="377" fill="rgb(0, 0, 0)" stroke="rgb(204, 204, 204)" stroke-width="1px"></line></g></g><g transform="translate(63, 0)" clip-path="url(#clip_0)"><clipPath id="clip_0"><rect width="1432" height="377"></rect></clipPath><g><g><g><line x1="0" y1="0" x2="0" y2="377" fill="rgb(0, 0, 0)" stroke="rgb(60, 60, 60)" stroke-width="1px" opacity="0.25"></line><line x1="159.1128472222222" y1="0" x2="159.1128472222222" y2="377" fill="rgb(0, 0, 0)" stroke="rgb(60, 60, 60)" stroke-width="1px" opacity="0.25"></line><line x1="318.2256944444444" y1="0" x2="318.2256944444444" y2="377" fill="rgb(0, 0, 0)" stroke="rgb(60, 60, 60)" stroke-width="1px" opacity="0.25"></line><line x1="477.33854166666663" y1="0" x2="477.33854166666663" y2="377" fill="rgb(0, 0, 0)" stroke="rgb(60, 60, 60)" stroke-width="1px" opacity="0.25"></line><line x1="636.4513888888888" y1="0" x2="636.4513888888888" y2="377" fill="rgb(0, 0, 0)" stroke="rgb(60, 60, 60)" stroke-width="1px" opacity="0.25"></line><line x1="795.5642361111112" y1="0" x2="795.5642361111112" y2="377" fill="rgb(0, 0, 0)" stroke="rgb(60, 60, 60)" stroke-width="1px" opacity="0.25"></line><line x1="954.6770833333333" y1="0" x2="954.6770833333333" y2="377" fill="rgb(0, 0, 0)" stroke="rgb(60, 60, 60)" stroke-width="1px" opacity="0.25"></line><line x1="1113.7899305555557" y1="0" x2="1113.7899305555557" y2="377" fill="rgb(0, 0, 0)" stroke="rgb(60, 60, 60)" stroke-width="1px" opacity="0.25"></line><line x1="1272.9027777777776" y1="0" x2="1272.9027777777776" y2="377" fill="rgb(0, 0, 0)" stroke="rgb(60, 60, 60)" stroke-width="1px" opacity="0.25"></line><line x1="1432.015625" y1="0" x2="1432.015625" y2="377" fill="rgb(0, 0, 0)" stroke="rgb(60, 60, 60)" stroke-width="1px" opacity="0.25"></line></g><g><line x1="0" y1="377" x2="1432.015625" y2="377" fill="rgb(0, 0, 0)" stroke="rgb(60, 60, 60)" stroke-width="1px" opacity="0.25"></line><line x1="0" y1="339.3" x2="1432.015625" y2="339.3" fill="rgb(0, 0, 0)" stroke="rgb(60, 60, 60)" stroke-width="1px" opacity="0.25"></line><line x1="0" y1="301.6" x2="1432.015625" y2="301.6" fill="rgb(0, 0, 0)" stroke="rgb(60, 60, 60)" stroke-width="1px" opacity="0.25"></line><line x1="0" y1="263.9" x2="1432.015625" y2="263.9" fill="rgb(0, 0, 0)" stroke="rgb(60, 60, 60)" stroke-width="1px" opacity="0.25"></line><line x1="0" y1="226.2" x2="1432.015625" y2="226.2" fill="rgb(0, 0, 0)" stroke="rgb(60, 60, 60)" stroke-width="1px" opacity="0.25"></line><line x1="0" y1="188.5" x2="1432.015625" y2="188.5" fill="rgb(0, 0, 0)" stroke="rgb(60, 60, 60)" stroke-width="1px" opacity="0.25"></line><line x1="0" y1="150.8" x2="1432.015625" y2="150.8" fill="rgb(0, 0, 0)" stroke="rgb(60, 60, 60)" stroke-width="1px" opacity="0.25"></line><line x1="0" y1="113.10000000000002" x2="1432.015625" y2="113.10000000000002" fill="rgb(0, 0, 0)" stroke="rgb(60, 60, 60)" stroke-width="1px" opacity="0.25"></line><line x1="0" y1="75.39999999999998" x2="1432.015625" y2="75.39999999999998" fill="rgb(0, 0, 0)" stroke="rgb(60, 60, 60)" stroke-width="1px" opacity="0.25"></line><line x1="0" y1="37.69999999999999" x2="1432.015625" y2="37.69999999999999" fill="rgb(0, 0, 0)" stroke="rgb(60, 60, 60)" stroke-width="1px" opacity="0.25"></line><line x1="0" y1="0" x2="1432.015625" y2="0" fill="rgb(0, 0, 0)" stroke="rgb(60, 60, 60)" stroke-width="1px" opacity="0.25"></line></g></g></g><g><g><line x1="0" y1="18849.999999999985" x2="1432.015625" y2="18849.999999999985" fill="rgb(0, 0, 0)" stroke="rgb(153, 153, 153)" stroke-width="1.5px"></line></g></g><g><g><line x1="159.1128472222222" y1="0" x2="159.1128472222222" y2="377" fill="rgb(0, 0, 0)" stroke="rgb(153, 153, 153)" stroke-width="1.5px"></line></g></g><g><g><g><g><g><path stroke="rgb(238, 51, 119)" stroke-width="2px" d="M159.1128472222222,275.6702572107313L175.02413194444443,227.5999243984382L190.93541666666667,227.7313493546355L206.84670138888887,228.31857130417438L222.7579861111111,213.88799679925071L238.66927083333331,198.34866442958148L254.58055555555558,188.55350809584604L270.4918402777778,178.93488771007222L286.403125,172.33206725989396L302.3144097222222,164.7940668824439L318.2256944444444,158.32578084990078L334.13697916666666,154.34326007940177L350.04826388888887,149.2074119578686L365.9595486111111,144.8213708286813L381.87083333333334,140.59286085354725L397.7821180555556,137.13929462367858L413.69340277777775,133.411454485501L429.6046875,130.23584395869577L445.5159722222222,127.68131092835463L461.4272569444445,124.73984783081005L477.33854166666663,122.00826472630735L493.2498263888889,120.1907148497782L509.16111111111115,118.54755973090784L525.0723958333333,116.62740514775078L540.9836805555556,114.71092913164324L556.8949652777778,113.01321929362115L572.80625,111.32546490420407L588.7175347222222,109.56425186490384L604.6288194444444,108.37446519275233L620.5401041666667,106.77937972810952L636.4513888888888,105.41013265747603L652.3626736111111,104.01278365850294L668.2739583333333,102.62687224763624L684.1852430555556,101.2441377931961L700.0965277777777,100.08740510400355L716.0078125,98.77059917589952L731.9190972222221,97.67702630033489L747.8303819444445,96.5733796441504L763.7416666666667,95.59716128635716L779.6529513888888,94.65559659646095L795.5642361111112,93.74123400592094L811.4755208333333,92.93440969233626L827.3868055555555,92.07590423702311L843.2980902777778,91.33409821094523L859.209375,90.63143598844704L875.1206597222223,89.87736602805046L891.0319444444444,89.0963726081954L906.9432291666666,88.55847652530798L922.854513888889,87.92261668784062L938.7657986111111,87.28020873560092L954.6770833333333,86.73962869827807L970.5883680555556,86.07462165241225L986.4996527777778,85.53644932293616L1002.4109374999999,85.1259718507589L1018.3222222222223,84.59573433127582L1034.2335069444443,84.23902743030044L1050.1447916666666,83.75433406337271L1066.0560763888889,83.32602135950259L1081.9673611111111,82.92240001231812L1097.8786458333334,82.54998547121647L1113.7899305555557,82.15562594704397L1129.7012152777777,81.75816818530035L1145.6125,81.40016938969904L1161.5237847222222,81.05360483917707L1177.4350694444445,80.6772586988883L1193.3463541666667,80.27276394701477L1209.2576388888888,80.06934334800849L1225.168923611111,79.78850401976695L1241.0802083333333,79.54911363162643L1256.9914930555556,79.34527750598755L1272.9027777777776,79.14992556560094L1288.8140625,78.85029375767442L1304.7253472222221,78.53283208187167L1320.6366319444446,78.24676914345696L1336.5479166666667,78.02854672512711" style="fill: none;" fill="none"></path></g><g><path stroke="rgb(51, 187, 238)" stroke-width="2px" d="M159.1128472222222,252.46900022029854L175.02413194444443,266.10344739716027L190.93541666666667,236.8467336714941L206.84670138888887,217.75845615296936L222.7579861111111,203.46219938481659L238.66927083333331,195.28457130580773L254.58055555555558,185.5852001064183L270.4918402777778,175.71307635017158L286.403125,167.72425372239286L302.3144097222222,161.71710883605854L318.2256944444444,155.98005150409688L334.13697916666666,150.96746462828227L350.04826388888887,148.43691334333374L365.9595486111111,144.00916515108906L381.87083333333334,139.64817333587706L397.7821180555556,136.65575902974405L413.69340277777775,133.2290469930703L429.6046875,130.8776220098119L445.5159722222222,127.98006119021295L461.4272569444445,125.20902477948223L477.33854166666663,122.81410740077595L493.2498263888889,120.90195707707448L509.16111111111115,118.72028750932805L525.0723958333333,117.00286805326675L540.9836805555556,116.47436576898212L556.8949652777778,114.66914032101653L572.80625,112.79134449914187L588.7175347222222,111.37250425736431L604.6288194444444,109.82771870897142L620.5401041666667,108.31648070876628L636.4513888888888,106.90739994452173L652.3626736111111,105.57853649582336L668.2739583333333,104.51079580795243L684.1852430555556,103.17581552835065L700.0965277777777,101.83888219439496L716.0078125,100.95297769203097L731.9190972222221,99.80371060423971L747.8303819444445,98.6717552432138L763.7416666666667,97.77666151431862L779.6529513888888,96.8820429184263L795.5642361111112,96.01124178616789L811.4755208333333,95.38004624278977L827.3868055555555,94.66483629736825L843.2980902777778,93.92993877664372L859.209375,93.38572204114206L875.1206597222223,92.60999860766242L891.0319444444444,91.91698066387357L906.9432291666666,91.1867492243909L922.854513888889,90.64714887333633L938.7657986111111,90.10976046335696L954.6770833333333,89.42180709003759L970.5883680555556,88.83074268330637L986.4996527777778,88.24517439616596L1002.4109374999999,87.87193443638256L1018.3222222222223,87.28343501293352L1034.2335069444443,87.00313280400547L1050.1447916666666,86.65877096595398L1066.0560763888889,86.28125033816684L1081.9673611111111,85.88171646216591L1097.8786458333334,85.49667552635395L1113.7899305555557,85.09472461589917L1129.7012152777777,84.8447957309906L1145.6125,84.4121831130982L1161.5237847222222,84.02363252132903L1177.4350694444445,83.68564441384387L1193.3463541666667,83.24695687025991L1209.2576388888888,82.910086901932L1225.168923611111,82.57445900937023L1241.0802083333333,82.25840911049914L1256.9914930555556,81.98534951040904L1272.9027777777776,81.71167970735064L1288.8140625,81.38903064651674L1304.7253472222221,81.0749065499183L1320.6366319444446,80.82311704338133L1336.5479166666667,80.62339963806056" style="fill: none;" fill="none"></path></g><g><path stroke="rgb(204, 51, 17)" stroke-width="2px" d="M159.1128472222222,266.7256951332069L175.02413194444443,227.77247081450622L190.93541666666667,214.47679213023852L206.84670138888887,198.2210783044751L222.7579861111111,189.98066153575942L238.66927083333331,178.20277255915326L254.58055555555558,172.3083579635384L270.4918402777778,165.92283096043303L286.403125,158.38646480759394L302.3144097222222,153.44378586592043L318.2256944444444,147.54651582621884L334.13697916666666,143.8795507470678L350.04826388888887,138.6619767707493L365.9595486111111,134.9883779898412L381.87083333333334,131.41145507952464L397.7821180555556,128.0220905950399L413.69340277777775,125.16662767782978L429.6046875,122.52345385706593L445.5159722222222,120.26781068742082L461.4272569444445,118.19944682600777L477.33854166666663,115.94109859339949L493.2498263888889,114.02380763800102L509.16111111111115,112.14187025400412L525.0723958333333,110.32201768158848L540.9836805555556,108.73753254746771L556.8949652777778,107.16658997421513L572.80625,105.37902290572589L588.7175347222222,104.06884726897522L604.6288194444444,103.32274707434806L620.5401041666667,101.98380410164532L636.4513888888888,100.7422428491289L652.3626736111111,99.55151373929323L668.2739583333333,98.36110799959988L684.1852430555556,97.58767314019923L700.0965277777777,96.70347647018497L716.0078125,95.74472717143846L731.9190972222221,94.9114685543305L747.8303819444445,94.06475864323522L763.7416666666667,93.20072382461274L779.6529513888888,92.43174712348025L795.5642361111112,91.69508359185335L811.4755208333333,91.02664357021558L827.3868055555555,90.36409550762659L843.2980902777778,89.77273703054527L859.209375,89.13186037871236L875.1206597222223,88.51132808520975L891.0319444444444,87.9146454718902L906.9432291666666,87.52024335508526L922.854513888889,87.0700144840336L938.7657986111111,86.56712336747859L954.6770833333333,86.19081746552041L970.5883680555556,85.63631926703306L986.4996527777778,85.22923296938478L1002.4109374999999,84.83349441736868L1018.3222222222223,84.39962710951141L1034.2335069444443,84.26855818690825L1050.1447916666666,83.98216176857295L1066.0560763888889,83.64358925817402L1081.9673611111111,83.35257854543931L1097.8786458333334,83.16897845689562L1113.7899305555557,82.81320693136229L1129.7012152777777,82.64932851206999L1145.6125,82.41431623841129L1161.5237847222222,82.15638365264516L1177.4350694444445,81.92169294218894L1193.3463541666667,81.69628453113438L1209.2576388888888,81.4920846394914L1225.168923611111,81.39257600275545L1241.0802083333333,81.20189383907285L1256.9914930555556,81.02189962543957L1272.9027777777776,80.77555273987144L1288.8140625,80.6442785498653L1304.7253472222221,80.48628053220102L1320.6366319444446,80.29914008289927L1336.5479166666667,80.15170132491602" style="fill: none;" fill="none"></path></g><g><path stroke="rgb(0, 153, 136)" stroke-width="2px" d="M159.1128472222222,316.1898761987662L175.02413194444443,280.5728541397049L190.93541666666667,288.56471644157676L206.84670138888887,256.93447857281467L222.7579861111111,238.07292593077545L238.66927083333331,217.94713755909098L254.58055555555558,204.57510324822795L270.4918402777778,192.97760018425055L286.403125,183.02846747517123L302.3144097222222,174.67766908595632L318.2256944444444,169.92905185594523L334.13697916666666,164.75852272899226L350.04826388888887,158.97154920148455L365.9595486111111,154.2574466734933L381.87083333333334,149.19752883702012L397.7821180555556,145.16476405200888L413.69340277777775,141.71549349763697L429.6046875,139.2674381230865L445.5159722222222,136.42570488655502L461.4272569444445,133.7728309584991L477.33854166666663,130.73231866184105L493.2498263888889,128.26938038964892L509.16111111111115,126.70040853872158L525.0723958333333,124.66941284519254L540.9836805555556,122.73803436891629L556.8949652777778,120.69863219107947L572.80625,118.82762156630781L588.7175347222222,117.17541887291503L604.6288194444444,115.68485742265972L620.5401041666667,114.03782337981323L636.4513888888888,112.51990309338879L652.3626736111111,111.29785723344247L668.2739583333333,109.91477222255662L684.1852430555556,108.63212727938884L700.0965277777777,107.65840425909659L716.0078125,106.26338044210593L731.9190972222221,105.16688212094624L747.8303819444445,104.03873415774427L763.7416666666667,103.04943778629217L779.6529513888888,102.48102845562823L795.5642361111112,101.69831283283361L811.4755208333333,100.9833356516333L827.3868055555555,100.15973600213482L843.2980902777778,99.24527662982035L859.209375,98.46672858293704L875.1206597222223,97.50791503567245L891.0319444444444,96.81443953503594L906.9432291666666,96.15921919989921L922.854513888889,95.66186752092801L938.7657986111111,95.04109950633097L954.6770833333333,94.46178829338146L970.5883680555556,93.99500023112705L986.4996527777778,93.42044027959679L1002.4109374999999,92.92827737942508L1018.3222222222223,92.41170968838964L1034.2335069444443,92.01922576551726L1050.1447916666666,91.661711146914L1066.0560763888889,91.24940043145267L1081.9673611111111,90.96536081019508L1097.8786458333334,90.43399388707581L1113.7899305555557,90.12702780332432L1129.7012152777777,89.87974124307522L1145.6125,89.42295463660571L1161.5237847222222,89.01321270735252L1177.4350694444445,88.97877634733254L1193.3463541666667,88.58131059580592L1209.2576388888888,88.2410293282473L1225.168923611111,87.9615490449579L1241.0802083333333,87.71377252309662L1256.9914930555556,87.48818753751539L1272.9027777777776,87.10219298686326L1288.8140625,86.72869581761569L1304.7253472222221,86.41384759588226L1320.6366319444446,86.08445393178118L1336.5479166666667,85.99983061307" style="fill: none;" fill="none"></path></g></g></g></g><g opacity="0.2"><g><g><g><path stroke="rgb(238, 51, 119)" stroke-width="2px" d="M159.1128472222222,275.6702572107313L175.02413194444443,180.01029491424543L190.93541666666667,227.9902696609495L206.84670138888887,230.04523813724498L222.7579861111111,157.59439766407002L238.66927083333331,122.9520559310912L254.58055555555558,131.80561065673817L270.4918402777778,114.24456238746637L286.403125,121.83187901973713L302.3144097222222,100.25527179241175L318.2256944444444,97.09585607051844L334.13697916666666,113.07832002639765L350.04826388888887,91.43991768360132L365.9595486111111,91.63878560066217L381.87083333333334,85.64690649509424L397.7821180555556,89.29281830787653L413.69340277777775,78.59102785587305L429.6046875,80.85947036743158L445.5159722222222,85.83004474639887L461.4272569444445,74.11930859088892L477.33854166666663,72.7654337882995L493.2498263888889,85.95363497734064L509.16111111111115,86.2783402204513L525.0723958333333,77.39444971084589L540.9836805555556,74.04740154743189L556.8949652777778,75.67092776298517L572.80625,72.90250658988947L588.7175347222222,68.12630593776697L604.6288194444444,79.48312461376185L620.5401041666667,66.85445010662073L636.4513888888888,70.12509703636164L652.3626736111111,66.98028743267054L668.2739583333333,64.8927360773086L684.1852430555556,62.604069709777775L700.0965277777777,66.94096326827997L716.0078125,60.11091768741602L731.9190972222221,64.8095935583114L747.8303819444445,62.64227032661432L763.7416666666667,64.91745412349695L779.6529513888888,64.42871093749994L795.5642361111112,63.77592980861658L811.4755208333333,65.95898270606989L827.3868055555555,62.809678912162724L843.2980902777778,65.56461751461023L859.209375,65.77022671699518L875.1206597222223,62.7175480127334L891.0319444444444,60.47494709491724L906.9432291666666,68.51055920124048L922.854513888889,63.83098363876337L938.7657986111111,62.54789233207697L954.6770833333333,65.60057103633875L970.5883680555556,59.67161059379572L986.4996527777778,63.850083947181645L1002.4109374999999,68.3442741632461L1018.3222222222223,62.609687447547856L1034.2335069444443,69.24311220645899L1050.1447916666666,63.10180127620691L1066.0560763888889,64.83431160449976L1081.9673611111111,65.27137160301203L1097.8786458333334,66.05785489082331L1113.7899305555557,64.47589993476862L1129.7012152777777,63.72424662113184L1145.6125,64.96464312076563L1161.5237847222222,64.95902538299555L1177.4350694444445,63.00180554389948L1193.3463541666667,61.0648095607757L1209.2576388888888,70.30486464500422L1225.168923611111,66.16459190845484L1241.0802083333333,67.81508326530451L1256.9914930555556,69.25210058689112L1272.9027777777776,69.38018500804895L1288.8140625,63.71862888336176L1304.7253472222221,62.346777319908085L1320.6366319444446,63.52425515651697L1336.5479166666667,66.69378280639643" style="fill: none;" fill="none"></path></g><g><path stroke="rgb(51, 187, 238)" stroke-width="2px" d="M159.1128472222222,252.46900022029854L175.02413194444443,279.60155010223366L190.93541666666667,179.20808196067793L206.84670138888887,161.6313040256499L222.7579861111111,147.692573070526L238.66927083333331,155.6068420410155L254.58055555555558,129.39223051071156L270.4918402777778,109.31780636310572L286.403125,106.62353932857508L302.3144097222222,110.28518080711359L318.2256944444444,101.67206525802607L334.13697916666666,99.02948141098017L350.04826388888887,119.97353136539448L365.9595486111111,90.32086431980127L381.87083333333334,82.980728149414L397.7821180555556,95.19818425178522L413.69340277777775,82.83691406249994L429.6046875,94.31619942188257L445.5159722222222,80.50892353057856L461.4272569444445,77.52141058444971L477.33854166666663,79.6404212713241L493.2498263888889,84.88289415836329L509.16111111111115,75.8754134178161L525.0723958333333,81.91223442554468L540.9836805555556,105.26067614555353L556.8949652777778,74.961969256401L572.80625,70.04195451736445L588.7175347222222,77.98992991447443L604.6288194444444,72.31601476669306L620.5401041666667,70.49024999141687L636.4513888888888,70.59586346149439L652.3626736111111,70.36104202270502L668.2739583333333,75.43947696685785L684.1852430555556,65.87022244930262L700.0965277777777,63.528749346733036L716.0078125,74.94399249553675L731.9190972222221,65.2623832225799L747.8303819444445,63.870307803153935L763.7416666666667,69.64646577835077L779.6529513888888,68.16225945949549L795.5642361111112,67.47352480888361L811.4755208333333,74.27660524845118L827.3868055555555,70.28351724147791L843.2980902777778,68.4004515409469L859.209375,74.13054406642908L875.1206597222223,64.67027366161341L891.0319444444444,66.51963293552393L906.9432291666666,63.97030353546137L922.854513888889,70.20262181758875L938.7657986111111,69.42063271999353L954.6770833333333,62.51980364322657L970.5883680555556,65.36350250244135L986.4996527777778,64.6489262580871L1002.4109374999999,72.61263132095331L1018.3222222222223,62.881585955619755L1034.2335069444443,75.2192616462707L1050.1447916666666,71.98569178581232L1066.0560763888889,69.98240649700159L1081.9673611111111,68.40943992137903L1097.8786458333334,68.44539344310755L1113.7899305555557,67.07466542720789L1129.7012152777777,73.5047280788421L1145.6125,64.5511776208877L1161.5237847222222,65.97920656204218L1177.4350694444445,67.81171262264246L1193.3463541666667,62.41531372070307L1209.2576388888888,66.73984825611109L1225.168923611111,66.29267632961268L1241.0802083333333,66.76681339740747L1256.9914930555556,68.46449375152582L1272.9027777777776,68.02518665790552L1288.8140625,65.0949746370315L1304.7253472222221,65.05902111530298L1320.6366319444446,67.86451935768122L1336.5479166666667,70.24981081485743" style="fill: none;" fill="none"></path></g><g><path stroke="rgb(204, 51, 17)" stroke-width="2px" d="M159.1128472222222,266.725695133209L175.02413194444443,189.20877873897535L190.93541666666667,188.28297555446608L206.84670138888887,150.42279362678516L222.7579861111111,157.83483684062946L238.66927083333331,121.05663120746601L254.58055555555558,138.1592720746993L270.4918402777778,122.97677397727955L286.403125,100.74626207351679L302.3144097222222,111.12559437751764L318.2256944444444,91.72192811965937L334.13697916666666,105.88424503803247L350.04826388888887,79.9752384424209L365.9595486111111,90.44445455074305L381.87083333333334,84.93233025074L397.7821180555556,81.06507956981653L413.69340277777775,83.1751018762588L429.6046875,81.4257383346557L445.5159722222222,83.31329822540278L461.4272569444445,82.60433971881861L477.33854166666663,75.22937357425684L493.2498263888889,77.90791094303125L509.16111111111115,75.18330812454218L525.0723958333333,73.13845157623285L540.9836805555556,75.11814236640924L556.8949652777778,72.61263132095331L572.80625,64.6837562322616L588.7175347222222,73.24294149875635L604.6288194444444,85.20535230636591L620.5401041666667,68.4701114892959L636.4513888888888,68.74762773513788L652.3626736111111,67.99485087394709L668.2739583333333,65.94999432563776L684.1852430555556,75.97428560256952L700.0965277777777,71.36661708354944L716.0078125,67.59711503982538L731.9190972222221,69.86780464649195L747.8303819444445,68.03305149078363L763.7416666666667,66.04661941528315L779.6529513888888,67.74542331695551L795.5642361111112,67.55329668521875L811.4755208333333,68.67796778678888L827.3868055555555,67.77800619602198L843.2980902777778,69.2296296358108L859.209375,66.45671427249903L875.1206597222223,66.16122126579279L891.0319444444444,66.04774296283716L906.9432291666666,72.8204876184463L922.854513888889,70.01161873340601L938.7657986111111,67.20612049102778L954.6770833333333,71.475601196289L970.5883680555556,63.62088024616236L986.4996527777778,68.825152516365L1002.4109374999999,68.65437328815455L1018.3222222222223,66.40952527523035L1034.2335069444443,78.75843644142145L1050.1447916666666,71.77895903587336L1066.0560763888889,69.02626752853388L1081.9673611111111,70.62619924545282L1097.8786458333334,75.0383704900741L1113.7899305555557,66.86343848705286L1129.7012152777777,75.21364390850061L1145.6125,71.62503302097315L1161.5237847222222,70.1779037714004L1177.4350694444445,70.89922130107874L1193.3463541666667,70.99247574806208L1209.2576388888888,71.69019877910608L1225.168923611111,76.565271615982L1241.0802083333333,71.85536026954645L1256.9914930555556,72.1092820167541L1272.9027777777776,68.4555053710937L1288.8140625,74.01481866836542L1304.7253472222221,72.4306166172027L1320.6366319444446,70.66777050495142L1336.5479166666667,72.4935352802276" style="fill: none;" fill="none"></path></g><g><path stroke="rgb(0, 153, 136)" stroke-width="2px" d="M159.1128472222222,316.18987619876833L175.02413194444443,245.31200230121593L190.93541666666667,304.30948436260195L206.84670138888887,163.92895877361286L222.7579861111111,164.49410319328297L238.66927083333331,120.29711306095112L254.58055555555558,127.10468769073475L270.4918402777778,114.9782389402389L286.403125,106.93476200103754L302.3144097222222,103.17986607551569L318.2256944444444,124.97781217098225L334.13697916666666,111.18401885032648L350.04826388888887,93.88026297092432L365.9595486111111,97.09697961807245L381.87083333333334,83.44812393188471L397.7821180555556,89.29394185543055L413.69340277777775,90.9916222095489L429.6046875,101.20354592800135L445.5159722222222,89.8691982030868L461.4272569444445,88.11871111392969L477.33854166666663,75.92035531997675L493.2498263888889,81.87515735626215L509.16111111111115,95.88804244995112L525.0723958333333,83.17173123359674L540.9836805555556,81.75830841064447L556.8949652777778,75.8405834436416L572.80625,76.23270153999323L588.7175347222222,78.30227613449091L604.6288194444444,79.48986589908594L620.5401041666667,72.81262278556818L636.4513888888888,73.40360879898066L652.3626736111111,78.91123890876764L668.2739583333333,72.25759029388422L684.1852430555556,72.78902828693384L700.0965277777777,79.75614666938776L716.0078125,65.30732512474054L731.9190972222221,72.21152484416956L747.8303819444445,69.35434341430658L763.7416666666667,71.95872664451593L779.6529513888888,84.23348367214197L795.5642361111112,76.04731619358057L811.4755208333333,77.07873284816736L827.3868055555555,72.08344042301172L843.2980902777778,67.47801899909967L859.209375,70.92056870460505L875.1206597222223,62.97371685504908L891.0319444444444,71.40032351016993L906.9432291666666,71.73851132392878L922.854513888889,76.81806981563562L938.7657986111111,71.14190757274622L954.6770833333333,71.80817127227778L970.5883680555556,75.46194791793818L986.4996527777778,70.26778757572168L1002.4109374999999,72.8070050477981L1018.3222222222223,70.99247574806208L1034.2335069444443,75.519248843193L1050.1447916666666,76.42819881439203L1066.0560763888889,73.4485507011413L1081.9673611111111,78.54383885860437L1097.8786458333334,66.90276265144342L1113.7899305555557,76.36528015136713L1129.7012152777777,78.65956425666803L1145.6125,68.45213472843164L1161.5237847222222,69.98465359210962L1177.4350694444445,87.36144006252283L1193.3463541666667,69.70713734626764L1209.2576388888888,71.9070434570312L1225.168923611111,74.403566122055L1241.0802083333333,75.5686849355697L1256.9914930555556,76.31809115409845L1272.9027777777776,67.79823005199427L1288.8140625,67.86676645278925L1304.7253472222221,70.36104202270502L1320.6366319444446,69.1318809986114L1336.5479166666667,81.60438239574427" style="fill: none;" fill="none"></path></g></g></g></g></g></g><g transform="translate(63, 377)" clip-path="url(#clip_1)"><clipPath id="clip_1"><rect width="1432" height="23"></rect></clipPath><g><g><line x1="0" y1="0" x2="0" y2="5" style="visibility: inherit;" fill="rgb(0, 0, 0)" stroke="rgb(204, 204, 204)" stroke-width="1px"></line><line x1="159.1128472222222" y1="0" x2="159.1128472222222" y2="5" style="visibility: inherit;" fill="rgb(0, 0, 0)" stroke="rgb(204, 204, 204)" stroke-width="1px"></line><line x1="318.2256944444444" y1="0" x2="318.2256944444444" y2="5" style="visibility: inherit;" fill="rgb(0, 0, 0)" stroke="rgb(204, 204, 204)" stroke-width="1px"></line><line x1="477.33854166666663" y1="0" x2="477.33854166666663" y2="5" style="visibility: inherit;" fill="rgb(0, 0, 0)" stroke="rgb(204, 204, 204)" stroke-width="1px"></line><line x1="636.4513888888888" y1="0" x2="636.4513888888888" y2="5" style="visibility: inherit;" fill="rgb(0, 0, 0)" stroke="rgb(204, 204, 204)" stroke-width="1px"></line><line x1="795.5642361111112" y1="0" x2="795.5642361111112" y2="5" style="visibility: inherit;" fill="rgb(0, 0, 0)" stroke="rgb(204, 204, 204)" stroke-width="1px"></line><line x1="954.6770833333333" y1="0" x2="954.6770833333333" y2="5" style="visibility: inherit;" fill="rgb(0, 0, 0)" stroke="rgb(204, 204, 204)" stroke-width="1px"></line><line x1="1113.7899305555557" y1="0" x2="1113.7899305555557" y2="5" style="visibility: inherit;" fill="rgb(0, 0, 0)" stroke="rgb(204, 204, 204)" stroke-width="1px"></line><line x1="1272.9027777777776" y1="0" x2="1272.9027777777776" y2="5" style="visibility: inherit;" fill="rgb(0, 0, 0)" stroke="rgb(204, 204, 204)" stroke-width="1px"></line><line x1="1432.015625" y1="0" x2="1432.015625" y2="5" style="visibility: inherit;" fill="rgb(0, 0, 0)" stroke="rgb(204, 204, 204)" stroke-width="1px"></line></g><g transform="translate(0, 8)"><text x="0" y="0" dx="0em" dy="0.95em" style="text-anchor: middle; visibility: hidden; font-family: &quot;Helvetica Neue&quot;, sans-serif; font-size: 12px; font-weight: 200;" fill="rgb(50, 49, 63)" stroke="none" stroke-width="1px">-10</text><text x="159.1128472222222" y="0" dx="0em" dy="0.95em" style="text-anchor: middle; visibility: inherit; font-family: &quot;Helvetica Neue&quot;, sans-serif; font-size: 12px; font-weight: 200;" fill="rgb(50, 49, 63)" stroke="none" stroke-width="1px">0</text><text x="318.2256944444444" y="0" dx="0em" dy="0.95em" style="text-anchor: middle; visibility: inherit; font-family: &quot;Helvetica Neue&quot;, sans-serif; font-size: 12px; font-weight: 200;" fill="rgb(50, 49, 63)" stroke="none" stroke-width="1px">10</text><text x="477.33854166666663" y="0" dx="0em" dy="0.95em" style="text-anchor: middle; visibility: inherit; font-family: &quot;Helvetica Neue&quot;, sans-serif; font-size: 12px; font-weight: 200;" fill="rgb(50, 49, 63)" stroke="none" stroke-width="1px">20</text><text x="636.4513888888888" y="0" dx="0em" dy="0.95em" style="text-anchor: middle; visibility: inherit; font-family: &quot;Helvetica Neue&quot;, sans-serif; font-size: 12px; font-weight: 200;" fill="rgb(50, 49, 63)" stroke="none" stroke-width="1px">30</text><text x="795.5642361111112" y="0" dx="0em" dy="0.95em" style="text-anchor: middle; visibility: inherit; font-family: &quot;Helvetica Neue&quot;, sans-serif; font-size: 12px; font-weight: 200;" fill="rgb(50, 49, 63)" stroke="none" stroke-width="1px">40</text><text x="954.6770833333333" y="0" dx="0em" dy="0.95em" style="text-anchor: middle; visibility: inherit; font-family: &quot;Helvetica Neue&quot;, sans-serif; font-size: 12px; font-weight: 200;" fill="rgb(50, 49, 63)" stroke="none" stroke-width="1px">50</text><text x="1113.7899305555557" y="0" dx="0em" dy="0.95em" style="text-anchor: middle; visibility: inherit; font-family: &quot;Helvetica Neue&quot;, sans-serif; font-size: 12px; font-weight: 200;" fill="rgb(50, 49, 63)" stroke="none" stroke-width="1px">60</text><text x="1272.9027777777776" y="0" dx="0em" dy="0.95em" style="text-anchor: middle; visibility: inherit; font-family: &quot;Helvetica Neue&quot;, sans-serif; font-size: 12px; font-weight: 200;" fill="rgb(50, 49, 63)" stroke="none" stroke-width="1px">70</text><text x="1432.015625" y="0" dx="0em" dy="0.95em" style="text-anchor: middle; visibility: hidden; font-family: &quot;Helvetica Neue&quot;, sans-serif; font-size: 12px; font-weight: 200;" fill="rgb(50, 49, 63)" stroke="none" stroke-width="1px">80</text></g><line x1="0" y1="0" x2="1432.015625" y2="0" fill="rgb(0, 0, 0)" stroke="rgb(204, 204, 204)" stroke-width="1px"></line></g></g></g></g></svg>