<svg viewBox="0 0 330 200" xmlns="http://www.w3.org/2000/svg"><g><g><g><g><g><line x1="63.984375" y1="177" x2="58.984375" y2="177" style="visibility: inherit;" fill="rgb(0, 0, 0)" stroke="rgb(204, 204, 204)" stroke-width="1px"></line><line x1="63.984375" y1="159.3" x2="58.984375" y2="159.3" style="visibility: inherit;" fill="rgb(0, 0, 0)" stroke="rgb(204, 204, 204)" stroke-width="1px"></line><line x1="63.984375" y1="141.6" x2="58.984375" y2="141.6" style="visibility: inherit;" fill="rgb(0, 0, 0)" stroke="rgb(204, 204, 204)" stroke-width="1px"></line><line x1="63.984375" y1="123.9" x2="58.984375" y2="123.9" style="visibility: inherit;" fill="rgb(0, 0, 0)" stroke="rgb(204, 204, 204)" stroke-width="1px"></line><line x1="63.984375" y1="106.2" x2="58.984375" y2="106.2" style="visibility: inherit;" fill="rgb(0, 0, 0)" stroke="rgb(204, 204, 204)" stroke-width="1px"></line><line x1="63.984375" y1="88.5" x2="58.984375" y2="88.5" style="visibility: inherit;" fill="rgb(0, 0, 0)" stroke="rgb(204, 204, 204)" stroke-width="1px"></line><line x1="63.984375" y1="70.8" x2="58.984375" y2="70.8" style="visibility: inherit;" fill="rgb(0, 0, 0)" stroke="rgb(204, 204, 204)" stroke-width="1px"></line><line x1="63.984375" y1="53.10000000000001" x2="58.984375" y2="53.10000000000001" style="visibility: inherit;" fill="rgb(0, 0, 0)" stroke="rgb(204, 204, 204)" stroke-width="1px"></line><line x1="63.984375" y1="35.400000000000006" x2="58.984375" y2="35.400000000000006" style="visibility: inherit;" fill="rgb(0, 0, 0)" stroke="rgb(204, 204, 204)" stroke-width="1px"></line><line x1="63.984375" y1="17.69999999999999" x2="58.984375" y2="17.69999999999999" style="visibility: inherit;" fill="rgb(0, 0, 0)" stroke="rgb(204, 204, 204)" stroke-width="1px"></line><line x1="63.984375" y1="0" x2="58.984375" y2="0" style="visibility: inherit;" fill="rgb(0, 0, 0)" stroke="rgb(204, 204, 204)" stroke-width="1px"></line></g><g transform="translate(53.984375, 0)"><text x="0" y="177" dx="0em" dy="0.3em" style="text-anchor: end; visibility: hidden; font-family: &quot;Helvetica Neue&quot;, sans-serif; font-size: 12px; font-weight: 200;" fill="rgb(50, 49, 63)" stroke="none" stroke-width="1px">0.98</text><text x="0" y="159.3" dx="0em" dy="0.3em" style="text-anchor: end; visibility: inherit; font-family: &quot;Helvetica Neue&quot;, sans-serif; font-size: 12px; font-weight: 200;" fill="rgb(50, 49, 63)" stroke="none" stroke-width="1px">0.982</text><text x="0" y="141.6" dx="0em" dy="0.3em" style="text-anchor: end; visibility: hidden; font-family: &quot;Helvetica Neue&quot;, sans-serif; font-size: 12px; font-weight: 200;" fill="rgb(50, 49, 63)" stroke="none" stroke-width="1px">0.984</text><text x="0" y="123.9" dx="0em" dy="0.3em" style="text-anchor: end; visibility: inherit; font-family: &quot;Helvetica Neue&quot;, sans-serif; font-size: 12px; font-weight: 200;" fill="rgb(50, 49, 63)" stroke="none" stroke-width="1px">0.986</text><text x="0" y="106.2" dx="0em" dy="0.3em" style="text-anchor: end; visibility: hidden; font-family: &quot;Helvetica Neue&quot;, sans-serif; font-size: 12px; font-weight: 200;" fill="rgb(50, 49, 63)" stroke="none" stroke-width="1px">0.988</text><text x="0" y="88.5" dx="0em" dy="0.3em" style="text-anchor: end; visibility: inherit; font-family: &quot;Helvetica Neue&quot;, sans-serif; font-size: 12px; font-weight: 200;" fill="rgb(50, 49, 63)" stroke="none" stroke-width="1px">0.99</text><text x="0" y="70.8" dx="0em" dy="0.3em" style="text-anchor: end; visibility: hidden; font-family: &quot;Helvetica Neue&quot;, sans-serif; font-size: 12px; font-weight: 200;" fill="rgb(50, 49, 63)" stroke="none" stroke-width="1px">0.992</text><text x="0" y="53.10000000000001" dx="0em" dy="0.3em" style="text-anchor: end; visibility: inherit; font-family: &quot;Helvetica Neue&quot;, sans-serif; font-size: 12px; font-weight: 200;" fill="rgb(50, 49, 63)" stroke="none" stroke-width="1px">0.994</text><text x="0" y="35.400000000000006" dx="0em" dy="0.3em" style="text-anchor: end; visibility: hidden; font-family: &quot;Helvetica Neue&quot;, sans-serif; font-size: 12px; font-weight: 200;" fill="rgb(50, 49, 63)" stroke="none" stroke-width="1px">0.996</text><text x="0" y="17.69999999999999" dx="0em" dy="0.3em" style="text-anchor: end; visibility: inherit; font-family: &quot;Helvetica Neue&quot;, sans-serif; font-size: 12px; font-weight: 200;" fill="rgb(50, 49, 63)" stroke="none" stroke-width="1px">0.998</text><text x="0" y="0" dx="0em" dy="0.3em" style="text-anchor: end; visibility: hidden; font-family: &quot;Helvetica Neue&quot;, sans-serif; font-size: 12px; font-weight: 200;" fill="rgb(50, 49, 63)" stroke="none" stroke-width="1px">1</text></g><line x1="63.984375" y1="0" x2="63.984375" y2="177" fill="rgb(0, 0, 0)" stroke="rgb(204, 204, 204)" stroke-width="1px"></line></g></g><g transform="translate(63, 0)" clip-path="url(#clip_0)"><clipPath id="clip_0"><rect width="266" height="177"></rect></clipPath><g><g><g><line x1="0" y1="0" x2="0" y2="177" fill="rgb(0, 0, 0)" stroke="rgb(60, 60, 60)" stroke-width="1px" opacity="0.25"></line><line x1="29.557291666666664" y1="0" x2="29.557291666666664" y2="177" fill="rgb(0, 0, 0)" stroke="rgb(60, 60, 60)" stroke-width="1px" opacity="0.25"></line><line x1="59.11458333333333" y1="0" x2="59.11458333333333" y2="177" fill="rgb(0, 0, 0)" stroke="rgb(60, 60, 60)" stroke-width="1px" opacity="0.25"></line><line x1="88.671875" y1="0" x2="88.671875" y2="177" fill="rgb(0, 0, 0)" stroke="rgb(60, 60, 60)" stroke-width="1px" opacity="0.25"></line><line x1="118.22916666666666" y1="0" x2="118.22916666666666" y2="177" fill="rgb(0, 0, 0)" stroke="rgb(60, 60, 60)" stroke-width="1px" opacity="0.25"></line><line x1="147.78645833333334" y1="0" x2="147.78645833333334" y2="177" fill="rgb(0, 0, 0)" stroke="rgb(60, 60, 60)" stroke-width="1px" opacity="0.25"></line><line x1="177.34375" y1="0" x2="177.34375" y2="177" fill="rgb(0, 0, 0)" stroke="rgb(60, 60, 60)" stroke-width="1px" opacity="0.25"></line><line x1="206.90104166666666" y1="0" x2="206.90104166666666" y2="177" fill="rgb(0, 0, 0)" stroke="rgb(60, 60, 60)" stroke-width="1px" opacity="0.25"></line><line x1="236.45833333333331" y1="0" x2="236.45833333333331" y2="177" fill="rgb(0, 0, 0)" stroke="rgb(60, 60, 60)" stroke-width="1px" opacity="0.25"></line><line x1="266.015625" y1="0" x2="266.015625" y2="177" fill="rgb(0, 0, 0)" stroke="rgb(60, 60, 60)" stroke-width="1px" opacity="0.25"></line></g><g><line x1="0" y1="177" x2="266.015625" y2="177" fill="rgb(0, 0, 0)" stroke="rgb(60, 60, 60)" stroke-width="1px" opacity="0.25"></line><line x1="0" y1="159.3" x2="266.015625" y2="159.3" fill="rgb(0, 0, 0)" stroke="rgb(60, 60, 60)" stroke-width="1px" opacity="0.25"></line><line x1="0" y1="141.6" x2="266.015625" y2="141.6" fill="rgb(0, 0, 0)" stroke="rgb(60, 60, 60)" stroke-width="1px" opacity="0.25"></line><line x1="0" y1="123.9" x2="266.015625" y2="123.9" fill="rgb(0, 0, 0)" stroke="rgb(60, 60, 60)" stroke-width="1px" opacity="0.25"></line><line x1="0" y1="106.2" x2="266.015625" y2="106.2" fill="rgb(0, 0, 0)" stroke="rgb(60, 60, 60)" stroke-width="1px" opacity="0.25"></line><line x1="0" y1="88.5" x2="266.015625" y2="88.5" fill="rgb(0, 0, 0)" stroke="rgb(60, 60, 60)" stroke-width="1px" opacity="0.25"></line><line x1="0" y1="70.8" x2="266.015625" y2="70.8" fill="rgb(0, 0, 0)" stroke="rgb(60, 60, 60)" stroke-width="1px" opacity="0.25"></line><line x1="0" y1="53.10000000000001" x2="266.015625" y2="53.10000000000001" fill="rgb(0, 0, 0)" stroke="rgb(60, 60, 60)" stroke-width="1px" opacity="0.25"></line><line x1="0" y1="35.400000000000006" x2="266.015625" y2="35.400000000000006" fill="rgb(0, 0, 0)" stroke="rgb(60, 60, 60)" stroke-width="1px" opacity="0.25"></line><line x1="0" y1="17.69999999999999" x2="266.015625" y2="17.69999999999999" fill="rgb(0, 0, 0)" stroke="rgb(60, 60, 60)" stroke-width="1px" opacity="0.25"></line><line x1="0" y1="0" x2="266.015625" y2="0" fill="rgb(0, 0, 0)" stroke="rgb(60, 60, 60)" stroke-width="1px" opacity="0.25"></line></g></g></g><g><g><line x1="0" y1="8849.999999999993" x2="266.015625" y2="8849.999999999993" fill="rgb(0, 0, 0)" stroke="rgb(153, 153, 153)" stroke-width="1.5px"></line></g></g><g><g><line x1="29.557291666666664" y1="0" x2="29.557291666666664" y2="177" fill="rgb(0, 0, 0)" stroke="rgb(153, 153, 153)" stroke-width="1.5px"></line></g></g><g><g><g><g><g><path stroke="rgb(238, 51, 119)" stroke-width="2px" d="M29.557291666666664,129.42608892917622L32.513020833333336,106.85725893507575L35.46875,106.91896242909944L38.424479166666664,107.19466079798109L41.380208333333336,100.41956348399835L44.3359375,93.12390876402101L47.29166666666667,88.52512183810279L50.24739583333333,84.00921783735485L53.203125,80.90921990716508L56.158854166666664,77.3701587219962L59.11458333333333,74.33332416560327L62.0703125,72.46354650942736L65.02604166666667,70.0522862507765L67.98177083333333,67.9930573917151L70.9375,66.0077887826999L73.89322916666667,64.38635317875625L76.84895833333333,62.636147066137084L79.8046875,61.14521055885717L82.76041666666667,59.945867465036514L85.71614583333334,58.564862244173426L88.671875,57.28239484497719L91.62760416666667,56.42906240957757L94.58333333333334,55.657607619020396L97.5390625,54.75610268210049L100.49479166666666,53.85632481777414L103.45052083333333,53.05925680363646L106.40625,52.266862833008275L109.36197916666666,51.439980318535746L112.31770833333333,50.88138020985984L115.2734375,50.13249393070393L118.22916666666666,49.48963787897415L121.18489583333333,48.833588083700306L124.140625,48.18290819053479L127.09635416666667,47.533719865771104L130.05208333333334,46.99063847057991L133.0078125,46.37240332661597L135.96354166666666,45.858975212624074L138.91927083333334,45.34081749871251L141.875,44.88248686388653L144.83072916666666,44.44042598825885L147.78645833333334,44.01113639004777L150.7421875,43.63233558499607L153.69791666666666,43.22927068953075L156.65364583333334,42.880995711770026L159.609375,42.55109859404541L162.56510416666669,42.197065747917605L165.52083333333334,41.830392444696514L168.4765625,41.577852373950975L171.43229166666669,41.279318710206354L174.38802083333334,40.97771073262962L177.34375,40.723910555955484L180.29947916666669,40.41169239383811L183.25520833333334,40.159022626418306L186.2109375,39.966305086430566L189.16666666666669,39.717360680731616L192.12239583333334,39.5498882099819L195.078125,39.32232660269753L198.03385416666669,39.121235492392486L200.98958333333331,38.93173687580983L203.9453125,38.75688973051808L206.90104166666666,38.571739502988805L209.85677083333331,38.38513466524711L212.8125,38.21705565511067L215.76822916666666,38.05434497754467L218.72395833333331,37.87765196207755L221.6796875,37.687743285468486L224.63541666666666,37.592238123600794L227.59114583333331,37.46038517638925L230.546875,37.34799234163893L233.50260416666666,37.25229209167054L236.45833333333331,37.160575132921394L239.4140625,37.019899191268905L242.36979166666666,36.87085219758961L245.32552083333334,36.73654678618536L248.28125,36.63409222903846" style="fill: none;" fill="none"></path></g><g><path stroke="rgb(51, 187, 238)" stroke-width="2px" d="M29.557291666666664,118.53319108486164L32.513020833333336,124.93450978593467L35.46875,111.19859909775717L38.424479166666664,102.2367287508636L41.380208333333336,95.5246930798741L44.3359375,91.68532923376118L47.29166666666667,87.13151304731046L50.24739583333333,82.49659022275961L53.203125,78.74586978478392L56.158854166666664,75.92553916175693L59.11458333333333,73.23201357088898L62.0703125,70.87862397667365L65.02604166666667,69.69054021689674L67.98177083333333,67.61173005767311L70.9375,65.5642617518574L73.89322916666667,64.15933514128567L76.84895833333333,62.55050747420013L79.8046875,61.446522800362615L82.76041666666667,60.086129524317485L85.71614583333334,58.785138954823225L88.671875,57.660734774369615L91.62760416666667,56.76298780541694L94.58333333333334,55.73870262374288L97.5390625,54.932381022356L100.49479166666666,54.684251302678604L103.45052083333333,53.83670513745338L106.40625,52.9550874704194L109.36197916666666,52.28894762215779L112.31770833333333,51.56367695354892L115.2734375,50.8541567253359L118.22916666666666,50.192598912945215L121.18489583333333,49.56870281103642L124.140625,49.06740280638614L127.09635416666667,48.44063487670576L130.05208333333334,47.81294999577696L133.0078125,47.39702135673602L135.96354166666666,46.857445031698745L138.91927083333334,46.32599649349825L141.875,45.90575354916285L144.83072916666666,45.48573367788185L147.78645833333334,45.07689601101251L150.7421875,44.78055221478459L153.69791666666666,44.44476399107211L156.65364583333334,44.09973252908739L159.609375,43.844224937087915L162.56510416666669,43.480025871501994L165.52083333333334,43.15465670425894L168.4765625,42.81181594885197L171.43229166666669,42.55847573098285L174.38802083333334,42.30617401064771L177.34375,41.98318263908928L180.29947916666669,41.705680251844115L183.25520833333334,41.43075827087898L186.2109375,41.25552359480031L189.16666666666669,40.97922545700061L192.12239583333334,40.84762468516968L195.078125,40.68594817234444L198.03385416666669,40.50870373966984L200.98958333333331,40.321124174544735L203.9453125,40.14034898717415L206.90104166666666,39.951634633989784L209.85677083333331,39.834294016937235L212.8125,39.6311841141071L215.76822916666666,39.448761157228745L218.72395833333331,39.29007708554474L221.6796875,39.08411502927322L224.63541666666666,38.92595591947472L227.59114583333331,38.76837995930646L230.546875,38.61999578927944L233.50260416666666,38.49179539348114L236.45833333333331,38.36330850981716L239.4140625,38.2118260595052L242.36979166666666,38.06434604598286L245.32552083333334,37.946131874478766L248.28125,37.85236534731226" style="fill: none;" fill="none"></path></g><g><path stroke="rgb(204, 51, 17)" stroke-width="2px" d="M29.557291666666664,125.22665262222182L32.513020833333336,106.93826879089549L35.46875,100.69600054921013L38.424479166666664,93.06400758592066L41.380208333333336,89.19516469981278L44.3359375,83.66549268692341L47.29166666666667,80.89808848686022L50.24739583333333,77.90010896550835L53.203125,74.36181504229211L56.158854166666664,72.04124694500773L59.11458333333333,69.27250212530699L62.0703125,67.55087661069231L65.02604166666667,65.10124638838893L67.98177083333333,63.37650637719335L70.9375,61.6971553025885L73.89322916666667,60.105862162658L76.84895833333333,58.76523368428613L79.8046875,57.52427409204422L82.76041666666667,56.4652585986034L85.71614583333334,55.49416999523443L88.671875,54.43388448549524L91.62760416666667,53.533724010414275L94.58333333333334,52.65016189644224L97.5390625,51.79574835448585L100.49479166666666,51.05183888833366L103.45052083333333,50.31428760062619L106.40625,49.47503197430633L109.36197916666666,48.85990972575229L112.31770833333333,48.50961865294326L115.2734375,47.88099025461864L118.22916666666666,47.298082186461045L121.18489583333333,46.73903960704217L124.140625,46.18014884861853L127.09635416666667,45.81702425945693L130.05208333333334,45.401897440909124L133.0078125,44.95176845980001L135.96354166666666,44.56055685442041L138.91927083333334,44.16302992003352L141.875,43.757369010494585L144.83072916666666,43.396337508901865L147.78645833333334,43.05047691182506L150.7421875,42.73664698124179L153.69791666666666,42.42558330198915L156.65364583333334,42.14794284988466L159.609375,41.84705381175621L162.56510416666669,41.55571636891813L165.52083333333334,41.27557625603333L168.4765625,41.09040603143259L171.43229166666669,40.879025367835396L174.38802083333334,40.642919989505856L177.34375,40.46624586577485L180.29947916666669,40.20591116781128L183.25520833333334,40.014785770772164L186.2109375,39.82898809515717L189.16666666666669,39.6252891203807L192.12239583333334,39.563752782712896L195.078125,39.42929080381276L198.03385416666669,39.27033235728595L200.98958333333331,39.13370398552456L203.9453125,39.04750447445764L206.90104166666666,38.88047115875631L209.85677083333331,38.80353089293473L212.8125,38.693193565514065L215.76822916666666,38.57209524275382L218.72395833333331,38.4619088879773L221.6796875,38.356080535837634L224.63541666666666,38.26020949917768L227.59114583333331,38.2134905901531L230.546875,38.12396607298646L233.50260416666666,38.039459505842984L236.45833333333331,37.92380062322877L239.4140625,37.862167913332L242.36979166666666,37.78798847267794L245.32552083333334,37.70012677632138L248.28125,37.630904866074644" style="fill: none;" fill="none"></path></g><g><path stroke="rgb(0, 153, 136)" stroke-width="2px" d="M29.557291666666664,148.44988882541546L32.513020833333336,131.7278386809755L35.46875,135.47998623384373L38.424479166666664,120.62971540421273L41.380208333333336,111.77429148474073L44.3359375,102.32531392031592L47.29166666666667,96.04719701574628L50.24739583333333,90.60221547112027L53.203125,85.9311372496162L56.158854166666664,82.01047063186809L59.11458333333333,79.7810137360804L62.0703125,77.35347088337303L65.02604166666667,74.63650983730176L67.98177083333333,72.42325745678598L70.9375,70.04764616486091L73.89322916666667,68.15427914378137L76.84895833333333,66.5348603423919L79.8046875,65.38550808431383L82.76041666666667,64.0513256363932L85.71614583333334,62.805811882372254L88.671875,61.37830345662033L91.62760416666667,60.22196373731528L94.58333333333334,59.485337695898465L97.5390625,58.5317932986713L100.49479166666666,57.625018788589344L103.45052083333333,56.66752758042723L106.40625,55.78909553643629L109.36197916666666,55.013392945639154L112.31770833333333,54.313580275360124L115.2734375,53.54030434542955L118.22916666666666,52.82764681042393L121.18489583333333,52.253901141430546L124.140625,51.6045482318104L127.09635416666667,51.00235153435497L130.05208333333334,50.54519245055728L133.0078125,49.8902343189728L135.96354166666666,49.375432719913746L138.91927083333334,48.8457717398428L141.875,48.38130102963851L144.83072916666666,48.11443511046738L147.78645833333334,47.746953239818424L150.7421875,47.41127429798169L153.69791666666666,47.02459753946383L156.65364583333334,46.59526250259469L159.609375,46.22973729225427L162.56510416666669,45.77957814672155L165.52083333333334,45.45399415835905L168.4765625,45.14637081798983L171.43229166666669,44.912866183565654L174.38802083333334,44.62141807061164L177.34375,44.34943376108359L180.29947916666669,44.1302786231021L183.25520833333334,43.86052501190619L186.2109375,43.629456488483385L189.16666666666669,43.386930012851366L192.12239583333334,43.2026603726699L195.078125,43.03480868170763L198.03385416666669,42.84123044129211L200.98958333333331,42.707874969242795L203.9453125,42.458400313030296L206.90104166666666,42.31428095805941L209.85677083333331,42.19818090192126L212.8125,41.98372140763718L215.76822916666666,41.7913492021257L218.72395833333331,41.775181468111015L221.6796875,41.58857287919798L224.63541666666666,41.428812177983474L227.59114583333331,41.29759729696963L230.546875,41.181267205804005L233.50260416666666,41.07535595262658L236.45833333333331,40.89413304688276L239.4140625,40.718777611984024L242.36979166666666,40.570957624591955L245.32552083333334,40.416308609881355L248.28125,40.376578298444" style="fill: none;" fill="none"></path></g></g></g></g><g opacity="0.2"><g><g><g><path stroke="rgb(238, 51, 119)" stroke-width="2px" d="M29.557291666666664,129.42608892917622L32.513020833333336,84.51411724090568L35.46875,107.04052448272695L38.424479166666664,108.00532400608053L41.380208333333336,73.98994266986841L44.3359375,57.72550106048578L47.29166666666667,61.882209777831974L50.24739583333333,53.63736748695369L53.203125,57.19958245754236L56.158854166666664,47.06945121288297L59.11458333333333,45.58611810207364L62.0703125,53.08982133865352L65.02604166666667,42.93067753314969L67.98177083333333,43.0240452289581L70.9375,40.21088182926175L73.89322916666667,41.92262291908261L76.84895833333333,36.89817488193509L79.8046875,37.96319961547849L82.76041666666667,40.29686450958249L85.71614583333334,34.79872047901151L88.671875,34.16308164596555L91.62760416666667,40.354889631271334L94.58333333333334,40.50733745098111L97.5390625,36.33638620376584L100.49479166666666,34.764960408210726L103.45052083333333,35.527199506759615L106.40625,34.22743678092954L109.36197916666666,31.985029578208895L112.31770833333333,37.317010760307284L115.2734375,31.387898325920077L118.22916666666666,32.92345404624936L121.18489583333333,31.446978449821444L124.140625,30.466881394386263L127.09635416666667,29.392361640930147L130.05208333333334,31.428515911102267L133.0078125,28.22183668613431L135.96354166666666,30.42784631252286L138.91927083333334,29.410296678543062L141.875,30.47848641872403L144.83072916666666,30.24902343749997L147.78645833333334,29.94254529476163L150.7421875,30.967479944229098L153.69791666666666,29.48889434337613L156.65364583333334,30.782327055931063L159.609375,30.878859758377047L162.56510416666669,29.44563925266263L165.52083333333334,28.392747044563265L168.4765625,32.16543495655057L171.43229166666669,29.968392848968477L174.38802083333334,29.365986585617037L177.34375,30.799207091331454L180.29947916666669,28.015583753585787L183.25520833333334,29.977360367774935L186.2109375,32.08736479282376L189.16666666666669,29.39499914646146L192.12239583333334,32.50936567783353L195.078125,29.626044631004305L198.03385416666669,30.43945133686063L200.98958333333331,30.644649267196627L203.9453125,31.01390004158017L206.90104166666666,30.271178483962984L209.85677083333331,29.918280243873568L212.8125,30.500641465187044L215.76822916666666,30.498003959655733L218.72395833333331,29.57909703254697L221.6796875,28.669685125350924L224.63541666666666,33.007854223251314L227.59114583333331,31.06401264667508L230.546875,31.838911771774264L233.50260416666666,32.513585686683626L236.45833333333331,32.57372081279752L239.4140625,29.915642738342257L242.36979166666666,29.271563887596102L245.32552083333334,29.824385046958895L248.28125,31.31246566772458" style="fill: none;" fill="none"></path></g><g><path stroke="rgb(51, 187, 238)" stroke-width="2px" d="M29.557291666666664,118.53319108486164L32.513020833333336,131.27181529998768L35.46875,84.13748145103446L38.424479166666664,75.88525414466852L41.380208333333336,69.34107542037958L44.3359375,73.05679321289057L47.29166666666667,60.749137401580754L50.24739583333333,51.324275135993915L53.203125,50.05932748317714L56.158854166666664,51.778453588485675L59.11458333333333,47.73463010787961L62.0703125,46.4939475059509L65.02604166666667,56.32709562778467L67.98177083333333,42.40528643131253L70.9375,38.959121704101534L73.89322916666667,44.69516873359677L76.84895833333333,38.89160156249997L79.8046875,44.28108036518094L82.76041666666667,37.79861927032468L85.71614583333334,36.39599382877347L88.671875,37.39086091518399L91.62760416666667,39.85218107700345L94.58333333333334,35.62320470809934L97.5390625,38.457468152046175L100.49479166666666,49.419468641281085L103.45052083333333,35.19434630870816L106.40625,32.88441896438596L109.36197916666666,36.61596179008481L112.31770833333333,33.952081203460665L115.2734375,33.09489190578458L118.22916666666666,33.144477009773226L121.18489583333333,33.034229278564425L124.140625,35.4185342788696L127.09635416666667,30.925807356834383L130.05208333333334,29.826495051383944L133.0078125,35.18590629100797L135.96354166666666,30.64042925834653L138.91927083333334,29.986855387687655L141.875,32.69873857498166L144.83072916666666,32.001909613609286L147.78645833333334,31.678551435470553L150.7421875,34.872570633888216L153.69791666666666,32.99783170223233L156.65364583333334,32.11373984813687L159.609375,34.80399549007413L162.56510416666669,30.362436175346346L165.52083333333334,31.23070299625394L168.4765625,30.03380298614499L171.43229166666669,32.95985162258145L174.38802083333334,32.59271085262296L177.34375,29.352799057960482L180.29947916666669,30.687904357910128L183.25520833333334,30.352413654327364L186.2109375,34.09134149551389L189.16666666666669,29.522654414176912L192.12239583333334,35.31514406204221L195.078125,33.796995878219576L198.03385416666669,32.85646140575406L200.98958333333331,32.11795985698697L203.9453125,32.13483989238736L206.90104166666666,31.49128854274747L209.85677083333331,34.51017737388608L212.8125,30.306521058082552L215.76822916666666,30.976974964141817L218.72395833333331,31.837329268455477L221.6796875,29.303741455078097L224.63541666666666,31.33409321308133L227.59114583333331,31.124147772788973L230.546875,31.346753239631624L233.50260416666666,32.14380741119382L236.45833333333331,31.937554478645296L239.4140625,30.56183159351346L242.36979166666666,30.54495155811307L245.32552083333334,31.8621218204498L248.28125,32.982006669044466" style="fill: none;" fill="none"></path></g><g><path stroke="rgb(204, 51, 17)" stroke-width="2px" d="M29.557291666666664,125.22665262222279L32.513020833333336,88.83276879787437L35.46875,88.3981078863143L38.424479166666664,70.62290310859674L41.380208333333336,74.10282790660852L44.3359375,56.83560669422144L47.29166666666667,64.86522853374476L50.24739583333333,57.73710608482355L53.203125,47.29996919631955L56.158854166666664,52.173024415969806L59.11458333333333,43.063080310821505L62.0703125,49.71223175525661L65.02604166666667,37.54805624485013L67.98177083333333,42.463311553001375L70.9375,39.87539112567899L73.89322916666667,38.05973231792447L76.84895833333333,39.050379395484896L79.8046875,38.22906017303464L82.76041666666667,39.11526203155515L85.71614583333334,38.782408833503695L88.671875,35.31989157199857L91.62760416666667,36.57745420932767L94.58333333333334,35.29826402664182L97.5390625,34.3382120132446L100.49479166666666,35.26766896247861L103.45052083333333,34.09134149551389L106.40625,30.368766188621493L109.36197916666666,34.387269616126986L112.31770833333333,40.003573894500704L115.2734375,32.14644491672513L118.22916666666666,32.276737689971895L121.18489583333333,31.923311948776217L124.140625,30.963259935379L127.09635416666667,35.66962480545041L130.05208333333334,33.5063427686691L133.0078125,31.736576557159395L135.96354166666666,32.802656292915316L138.91927083333334,31.94124698638913L141.875,31.00862503051755L144.83072916666666,31.806206703186007L147.78645833333334,31.71600401401517L150.7421875,32.24403262138364L153.69791666666666,31.82150423526761L156.65364583333334,32.50303566455838L159.609375,31.201162934303255L162.56510416666669,31.062430143356295L165.52083333333334,31.009152531623812L168.4765625,34.188929200172396L171.43229166666669,32.87017643451688L174.38802083333334,31.553006172180147L177.34375,33.557510375976534L180.29947916666669,29.869750142097445L183.25520833333334,32.31313526630399L186.2109375,32.23295509815213L189.16666666666669,31.179007887840243L192.12239583333334,36.97677254676816L195.078125,33.69993567466733L198.03385416666669,32.40755796432492L200.98958333333331,33.158719539642306L203.9453125,35.23021638393399L206.90104166666666,31.392118334770174L209.85677083333331,35.3125065565109L212.8125,33.62766802310941L215.76822916666666,32.948246598243685L218.72395833333331,33.28690230846402L221.6796875,33.330684900283785L224.63541666666666,33.658263087272616L227.59114583333331,35.94709038734433L230.546875,33.73580574989316L233.50260416666666,33.85502099990842L236.45833333333331,32.13958740234372L239.4140625,34.74966287612912L242.36979166666666,34.00588631629941L245.32552083333334,33.17823708057401L248.28125,34.035426378250094" style="fill: none;" fill="none"></path></g><g><path stroke="rgb(0, 153, 136)" stroke-width="2px" d="M29.557291666666664,148.44988882541642L32.513020833333336,115.1730090379714L35.46875,142.87209212779987L38.424479166666664,76.96399390697474L41.380208333333336,77.22932696342463L44.3359375,56.47901594638819L47.29166666666667,59.6751451492309L50.24739583333333,53.981825709342914L53.203125,50.205445289611774L56.158854166666664,48.44253659248349L59.11458333333333,58.67658555507654L62.0703125,52.20045447349544L65.02604166666667,44.076409935951204L67.98177083333333,45.5866456031799L70.9375,39.17856216430661L73.89322916666667,41.923150420188875L76.84895833333333,42.72020459175107L79.8046875,47.51466214656827L82.76041666666667,42.193230986595125L85.71614583333334,41.37138426303861L88.671875,35.644304752349825L91.62760416666667,38.44006061553952L94.58333333333334,45.01905441284177L97.5390625,39.04879689216611L100.49479166666666,38.38520050048825L103.45052083333333,35.60685217380521L106.40625,35.79095005989072L109.36197916666666,36.762607097625704L112.31770833333333,37.32017576694486L115.2734375,34.18523669242856L118.22916666666666,34.46270227432248L121.18489583333333,37.04851269721982L124.140625,33.92465114593503L127.09635416666667,34.174159169197054L130.05208333333334,37.445193529129L133.0078125,30.661529302597017L135.96354166666666,33.90302360057828L138.91927083333334,32.56158828735349L141.875,33.78433585166928L144.83072916666666,39.547285437583895L147.78645833333334,35.703912377357454L150.7421875,36.18815839290616L153.69791666666666,33.84288847446439L156.65364583333334,31.6806614398956L159.609375,33.296924829483004L162.56510416666669,29.565909504890413L165.52083333333334,33.522167801856966L168.4765625,33.68094563484189L171.43229166666669,36.06577813625333L174.38802083333334,33.40084254741666L177.34375,33.71365070343015L180.29947916666669,35.429084300994845L183.25520833333334,32.99044668674466L186.2109375,34.18259918689725L189.16666666666669,33.330684900283785L192.12239583333334,35.45598685741422L195.078125,35.88273525238034L198.03385416666669,34.48380231857297L200.98958333333331,36.87601983547208L203.9453125,31.41058087348935L206.90104166666666,35.85319519042966L209.85677083333331,36.930352449417086L212.8125,32.138004899024935L215.76822916666666,32.857516407966585L218.72395833333331,41.01584851741788L221.6796875,32.72722363471982L224.63541666666666,33.76007080078122L227.59114583333331,34.932178258895846L230.546875,35.479196906089754L233.50260416666666,35.831040143966646L236.45833333333331,31.83099925518033L239.4140625,31.863176822662325L242.36979166666666,33.034229278564425L245.32552083333334,32.45714306831357L248.28125,38.31293284893033" style="fill: none;" fill="none"></path></g></g></g></g></g></g><g transform="translate(63, 177)" clip-path="url(#clip_1)"><clipPath id="clip_1"><rect width="266" height="23"></rect></clipPath><g><g><line x1="0" y1="0" x2="0" y2="5" style="visibility: inherit;" fill="rgb(0, 0, 0)" stroke="rgb(204, 204, 204)" stroke-width="1px"></line><line x1="29.557291666666664" y1="0" x2="29.557291666666664" y2="5" style="visibility: inherit;" fill="rgb(0, 0, 0)" stroke="rgb(204, 204, 204)" stroke-width="1px"></line><line x1="59.11458333333333" y1="0" x2="59.11458333333333" y2="5" style="visibility: inherit;" fill="rgb(0, 0, 0)" stroke="rgb(204, 204, 204)" stroke-width="1px"></line><line x1="88.671875" y1="0" x2="88.671875" y2="5" style="visibility: inherit;" fill="rgb(0, 0, 0)" stroke="rgb(204, 204, 204)" stroke-width="1px"></line><line x1="118.22916666666666" y1="0" x2="118.22916666666666" y2="5" style="visibility: inherit;" fill="rgb(0, 0, 0)" stroke="rgb(204, 204, 204)" stroke-width="1px"></line><line x1="147.78645833333334" y1="0" x2="147.78645833333334" y2="5" style="visibility: inherit;" fill="rgb(0, 0, 0)" stroke="rgb(204, 204, 204)" stroke-width="1px"></line><line x1="177.34375" y1="0" x2="177.34375" y2="5" style="visibility: inherit;" fill="rgb(0, 0, 0)" stroke="rgb(204, 204, 204)" stroke-width="1px"></line><line x1="206.90104166666666" y1="0" x2="206.90104166666666" y2="5" style="visibility: inherit;" fill="rgb(0, 0, 0)" stroke="rgb(204, 204, 204)" stroke-width="1px"></line><line x1="236.45833333333331" y1="0" x2="236.45833333333331" y2="5" style="visibility: inherit;" fill="rgb(0, 0, 0)" stroke="rgb(204, 204, 204)" stroke-width="1px"></line><line x1="266.015625" y1="0" x2="266.015625" y2="5" style="visibility: inherit;" fill="rgb(0, 0, 0)" stroke="rgb(204, 204, 204)" stroke-width="1px"></line></g><g transform="translate(0, 8)"><text x="0" y="0" dx="0em" dy="0.95em" style="text-anchor: middle; visibility: hidden; font-family: &quot;Helvetica Neue&quot;, sans-serif; font-size: 12px; font-weight: 200;" fill="rgb(50, 49, 63)" stroke="none" stroke-width="1px">-10</text><text x="29.557291666666664" y="0" dx="0em" dy="0.95em" style="text-anchor: middle; visibility: inherit; font-family: &quot;Helvetica Neue&quot;, sans-serif; font-size: 12px; font-weight: 200;" fill="rgb(50, 49, 63)" stroke="none" stroke-width="1px">0</text><text x="59.11458333333333" y="0" dx="0em" dy="0.95em" style="text-anchor: middle; visibility: inherit; font-family: &quot;Helvetica Neue&quot;, sans-serif; font-size: 12px; font-weight: 200;" fill="rgb(50, 49, 63)" stroke="none" stroke-width="1px">10</text><text x="88.671875" y="0" dx="0em" dy="0.95em" style="text-anchor: middle; visibility: inherit; font-family: &quot;Helvetica Neue&quot;, sans-serif; font-size: 12px; font-weight: 200;" fill="rgb(50, 49, 63)" stroke="none" stroke-width="1px">20</text><text x="118.22916666666666" y="0" dx="0em" dy="0.95em" style="text-anchor: middle; visibility: inherit; font-family: &quot;Helvetica Neue&quot;, sans-serif; font-size: 12px; font-weight: 200;" fill="rgb(50, 49, 63)" stroke="none" stroke-width="1px">30</text><text x="147.78645833333334" y="0" dx="0em" dy="0.95em" style="text-anchor: middle; visibility: inherit; font-family: &quot;Helvetica Neue&quot;, sans-serif; font-size: 12px; font-weight: 200;" fill="rgb(50, 49, 63)" stroke="none" stroke-width="1px">40</text><text x="177.34375" y="0" dx="0em" dy="0.95em" style="text-anchor: middle; visibility: inherit; font-family: &quot;Helvetica Neue&quot;, sans-serif; font-size: 12px; font-weight: 200;" fill="rgb(50, 49, 63)" stroke="none" stroke-width="1px">50</text><text x="206.90104166666666" y="0" dx="0em" dy="0.95em" style="text-anchor: middle; visibility: inherit; font-family: &quot;Helvetica Neue&quot;, sans-serif; font-size: 12px; font-weight: 200;" fill="rgb(50, 49, 63)" stroke="none" stroke-width="1px">60</text><text x="236.45833333333331" y="0" dx="0em" dy="0.95em" style="text-anchor: middle; visibility: inherit; font-family: &quot;Helvetica Neue&quot;, sans-serif; font-size: 12px; font-weight: 200;" fill="rgb(50, 49, 63)" stroke="none" stroke-width="1px">70</text><text x="266.015625" y="0" dx="0em" dy="0.95em" style="text-anchor: middle; visibility: hidden; font-family: &quot;Helvetica Neue&quot;, sans-serif; font-size: 12px; font-weight: 200;" fill="rgb(50, 49, 63)" stroke="none" stroke-width="1px">80</text></g><line x1="0" y1="0" x2="266.015625" y2="0" fill="rgb(0, 0, 0)" stroke="rgb(204, 204, 204)" stroke-width="1px"></line></g></g></g></g></svg>